{"glyphs":{"0":{"ha":1342,"x_min":0,"x_max":0,"o":"m 671 -28 b 82 497 285 -28 82 188 b 671 1019 82 806 285 1019 b 1260 497 1056 1019 1260 804 b 671 -28 1260 189 1056 -28 m 671 207 b 969 497 858 207 969 307 b 671 785 969 686 860 785 b 374 497 482 785 374 688 b 671 207 374 306 483 207 "},"1":{"ha":1143,"x_min":0,"x_max":0,"o":"m 715 992 l 715 225 l 1047 225 l 1047 0 l 96 0 l 96 225 l 428 225 l 429 749 l 164 663 l 96 881 l 449 992 "},"2":{"ha":1288,"x_min":0,"x_max":0,"o":"m 1190 715 b 440 225 1190 331 506 381 l 1181 225 l 1181 0 l 92 0 l 92 136 b 890 703 101 550 890 478 b 681 814 890 769 847 814 b 415 642 507 814 415 761 l 115 642 b 686 1019 133 918 379 1019 b 1190 715 993 1019 1190 925 "},"3":{"ha":1296,"x_min":0,"x_max":0,"o":"m 1039 506 b 1214 285 1143 468 1214 401 b 683 -28 1214 78 1025 -28 b 82 346 289 -28 101 83 l 374 346 b 668 188 374 229 467 188 b 915 303 851 188 915 222 b 581 421 915 394 840 421 l 581 589 b 901 706 826 589 901 619 b 664 814 901 775 846 814 b 374 646 453 814 374 768 l 92 646 b 686 1019 111 908 319 1019 b 1200 721 1014 1019 1200 919 b 1039 506 1200 608 1136 544 "},"4":{"ha":1353,"x_min":0,"x_max":0,"o":"m 1257 363 l 1257 147 l 1068 147 l 1068 0 l 782 0 l 782 147 l 96 147 l 96 363 l 782 992 l 1068 992 l 1068 363 m 385 363 l 782 363 l 782 724 "},"5":{"ha":1268,"x_min":0,"x_max":0,"o":"m 782 678 b 1185 350 1028 678 1185 554 b 654 -28 1185 113 993 -28 b 82 321 350 -28 92 69 l 383 321 b 649 188 393 238 481 188 b 885 349 811 188 885 247 b 675 501 885 439 829 501 b 406 418 586 501 517 482 l 140 472 l 233 992 l 1107 992 l 1107 776 l 464 776 l 436 603 b 782 678 532 647 633 678 "},"6":{"ha":1294,"x_min":0,"x_max":0,"o":"m 761 678 b 1199 340 1033 678 1199 567 b 674 -28 1199 97 1014 -28 b 96 472 274 -28 99 126 l 96 476 b 96 481 96 478 96 479 b 725 1019 100 881 367 1019 b 1119 988 886 1019 985 1007 l 1119 772 b 758 804 994 789 896 804 b 400 585 526 804 418 760 b 761 678 478 633 594 678 m 647 188 b 897 344 833 188 897 247 b 647 501 897 442 835 501 b 397 344 469 501 397 443 b 647 188 397 247 469 188 "},"7":{"ha":1190,"x_min":0,"x_max":0,"o":"m 79 992 l 1111 992 l 1111 767 b 596 0 738 536 596 314 l 306 0 b 785 767 306 283 414 556 l 79 767 "},"8":{"ha":1361,"x_min":0,"x_max":0,"o":"m 1017 526 b 1269 271 1189 483 1269 397 b 681 -28 1269 92 1136 -28 b 92 271 224 -28 92 90 b 344 526 92 397 172 482 b 179 749 238 569 179 640 b 681 1019 179 928 350 1019 b 1182 749 1011 1019 1182 926 b 1017 526 1182 642 1124 569 m 681 832 b 461 732 518 832 461 801 b 681 631 461 663 518 631 b 900 732 843 631 900 663 b 681 832 900 801 843 832 m 681 168 b 960 293 885 168 960 213 b 681 415 960 374 886 415 b 401 293 475 415 401 374 b 681 168 401 211 476 168 "},"9":{"ha":1304,"x_min":0,"x_max":0,"o":"m 1207 511 l 1207 511 b 579 -28 1203 111 938 -28 b 185 4 418 -28 319 -15 l 185 219 b 546 188 310 203 408 188 b 904 407 778 188 886 232 b 543 314 825 358 710 314 b 106 651 271 314 106 424 b 631 1019 106 894 290 1019 b 1207 519 1031 1019 1204 865 l 1207 515 m 657 490 b 907 646 835 490 907 549 b 657 804 907 744 835 804 b 407 646 471 804 407 744 b 657 490 407 549 469 490 "}," ":{"ha":546,"x_min":0,"x_max":0,"o":""},"A":{"ha":1583,"x_min":0,"x_max":0,"o":"m 1192 0 l 1097 188 l 486 188 l 392 0 l 82 0 l 593 992 l 990 992 l 1500 0 m 596 403 l 988 403 l 792 790 "},"Á":{"ha":1583,"x_min":0,"x_max":0,"o":"m 1061 1361 l 1061 1218 l 521 1107 l 521 1250 m 1192 0 l 1097 188 l 486 188 l 392 0 l 82 0 l 593 992 l 990 992 l 1500 0 m 596 403 l 988 403 l 792 790 "},"Ă":{"ha":1583,"x_min":0,"x_max":0,"o":"m 792 1093 b 476 1357 619 1093 476 1154 l 635 1357 b 792 1228 635 1265 689 1228 b 949 1357 894 1228 949 1265 l 1107 1357 b 792 1093 1107 1154 964 1093 m 1192 0 l 1097 188 l 486 188 l 392 0 l 82 0 l 593 992 l 990 992 l 1500 0 m 596 403 l 988 403 l 792 790 "},"Â":{"ha":1583,"x_min":0,"x_max":0,"o":"m 1079 1101 l 792 1213 l 504 1101 l 504 1250 l 792 1361 l 1079 1250 m 1192 0 l 1097 188 l 486 188 l 392 0 l 82 0 l 593 992 l 990 992 l 1500 0 m 596 403 l 988 403 l 792 790 "},"Ä":{"ha":1583,"x_min":0,"x_max":0,"o":"m 732 1278 l 732 1139 l 490 1139 l 490 1278 m 1093 1278 l 1093 1139 l 851 1139 l 851 1278 m 1192 0 l 1097 188 l 486 188 l 392 0 l 82 0 l 593 992 l 990 992 l 1500 0 m 596 403 l 988 403 l 792 790 "},"À":{"ha":1583,"x_min":0,"x_max":0,"o":"m 1061 1250 l 1061 1107 l 521 1218 l 521 1361 m 1192 0 l 1097 188 l 486 188 l 392 0 l 82 0 l 593 992 l 990 992 l 1500 0 m 596 403 l 988 403 l 792 790 "},"Ā":{"ha":1583,"x_min":0,"x_max":0,"o":"m 1117 1278 l 1117 1139 l 465 1139 l 465 1278 m 1192 0 l 1097 188 l 486 188 l 392 0 l 82 0 l 593 992 l 990 992 l 1500 0 m 596 403 l 988 403 l 792 790 "},"Ą":{"ha":1583,"x_min":0,"x_max":0,"o":"m 1300 -94 b 1500 -171 1300 -165 1383 -171 l 1500 -347 b 1061 -151 1244 -347 1061 -301 b 1225 0 1061 -74 1125 -21 l 1192 0 l 1097 188 l 486 188 l 392 0 l 82 0 l 593 992 l 990 992 l 1500 0 l 1472 0 b 1300 -94 1356 -7 1300 -47 m 596 403 l 988 403 l 792 790 "},"Å":{"ha":1583,"x_min":0,"x_max":0,"o":"m 792 1083 b 490 1267 576 1083 490 1151 b 792 1450 490 1382 576 1450 b 1093 1267 1007 1450 1093 1382 b 792 1083 1093 1151 1007 1083 m 792 1343 b 649 1267 703 1343 649 1322 b 792 1190 649 1211 703 1190 b 935 1267 881 1190 935 1211 b 792 1343 935 1322 881 1343 m 1192 0 l 1097 188 l 486 188 l 392 0 l 82 0 l 593 992 l 990 992 l 1500 0 m 596 403 l 988 403 l 792 790 "},"Ã":{"ha":1583,"x_min":0,"x_max":0,"o":"m 639 1217 b 556 1092 574 1217 556 1171 l 369 1092 b 596 1385 369 1240 424 1385 b 944 1256 767 1385 840 1256 b 1028 1381 1010 1256 1028 1301 l 1214 1381 b 988 1088 1214 1232 1158 1088 b 639 1217 817 1088 742 1217 m 1192 0 l 1097 188 l 486 188 l 392 0 l 82 0 l 593 992 l 990 992 l 1500 0 m 596 403 l 988 403 l 792 790 "},"Æ":{"ha":2046,"x_min":0,"x_max":0,"o":"m 533 992 l 1963 992 l 1963 767 l 1222 767 l 1222 608 l 1935 608 l 1935 383 l 1222 383 l 1222 225 l 1963 225 l 1963 0 l 935 0 l 935 192 l 479 192 l 390 0 l 82 0 m 575 407 l 935 407 l 935 767 l 743 767 "},"B":{"ha":1357,"x_min":0,"x_max":0,"o":"m 96 0 l 96 992 l 900 992 b 1228 746 1150 992 1228 885 b 1078 517 1228 635 1168 560 b 1274 276 1188 481 1274 410 b 939 0 1274 113 1178 0 m 383 592 l 807 592 b 936 683 883 592 936 592 b 807 776 936 776 883 776 l 383 776 m 383 215 l 853 215 b 974 310 921 215 974 215 b 853 403 974 403 921 403 l 383 403 "},"C":{"ha":1383,"x_min":0,"x_max":0,"o":"m 82 497 b 699 1019 82 836 300 1019 b 1300 607 1064 1019 1271 863 l 994 607 b 699 775 975 699 882 775 b 383 497 486 775 383 671 b 699 217 383 322 488 217 b 994 388 882 217 975 294 l 1300 388 b 699 -28 1271 131 1064 -28 b 82 497 300 -28 82 157 "},"Ć":{"ha":1383,"x_min":0,"x_max":0,"o":"m 428 1250 l 968 1361 l 968 1218 l 428 1107 m 82 497 b 699 1019 82 836 300 1019 b 1300 607 1064 1019 1271 863 l 994 607 b 699 775 975 699 882 775 b 383 497 486 775 383 671 b 699 217 383 322 488 217 b 994 388 882 217 975 294 l 1300 388 b 699 -28 1271 131 1064 -28 b 82 497 300 -28 82 157 "},"Č":{"ha":1383,"x_min":0,"x_max":0,"o":"m 986 1197 l 699 1086 l 411 1197 l 411 1346 l 699 1235 l 986 1346 m 699 217 b 994 388 882 217 975 294 l 1300 388 b 699 -28 1271 131 1064 -28 b 82 497 300 -28 82 157 b 699 1019 82 836 300 1019 b 1300 607 1064 1019 1271 863 l 994 607 b 699 775 975 699 882 775 b 383 497 486 775 383 671 b 699 217 383 322 488 217 "},"Ç":{"ha":1383,"x_min":0,"x_max":0,"o":"m 699 217 b 994 388 882 217 975 294 l 1300 388 b 731 -28 1272 138 1076 -18 l 713 -103 b 821 -83 740 -92 776 -83 b 964 -190 904 -83 964 -119 b 525 -333 964 -333 739 -360 l 525 -212 b 778 -189 697 -237 778 -236 b 732 -157 778 -167 760 -157 b 661 -178 711 -157 689 -164 l 565 -146 l 590 -22 b 82 497 261 8 82 189 b 699 1019 82 836 300 1019 b 1300 607 1064 1019 1271 863 l 994 607 b 699 775 975 699 882 775 b 383 497 486 775 383 671 b 699 217 383 322 488 217 "},"Ċ":{"ha":1383,"x_min":0,"x_max":0,"o":"m 568 1278 l 829 1278 l 829 1139 l 568 1139 m 82 497 b 699 1019 82 836 300 1019 b 1300 607 1064 1019 1271 863 l 994 607 b 699 775 975 699 882 775 b 383 497 486 775 383 671 b 699 217 383 322 488 217 b 994 388 882 217 975 294 l 1300 388 b 699 -28 1271 131 1064 -28 b 82 497 300 -28 82 157 "},"D":{"ha":1357,"x_min":0,"x_max":0,"o":"m 810 992 b 1274 496 1053 992 1274 836 b 810 0 1274 156 1053 0 l 96 0 l 96 992 m 383 244 l 689 244 b 974 496 846 244 974 265 b 689 747 974 726 846 747 l 383 747 "},"Ð":{"ha":1394,"x_min":0,"x_max":0,"o":"m 847 992 b 1311 496 1090 992 1311 836 b 847 0 1311 156 1090 0 l 133 0 l 133 454 l 22 454 l 22 538 l 133 538 l 133 992 m 421 244 l 726 244 b 1011 496 883 244 1011 265 b 726 747 1011 726 883 747 l 421 747 l 421 538 l 689 538 l 689 454 l 421 454 "},"Ď":{"ha":1357,"x_min":0,"x_max":0,"o":"m 875 1326 l 875 1178 l 588 1067 l 300 1178 l 300 1326 l 588 1215 m 810 992 b 1274 496 1053 992 1274 836 b 810 0 1274 156 1053 0 l 96 0 l 96 992 m 383 244 l 689 244 b 974 496 846 244 974 265 b 689 747 974 726 846 747 l 383 747 "},"Đ":{"ha":1394,"x_min":0,"x_max":0,"o":"m 847 992 b 1311 496 1090 992 1311 836 b 847 0 1311 156 1090 0 l 133 0 l 133 454 l 22 454 l 22 538 l 133 538 l 133 992 m 421 244 l 726 244 b 1011 496 883 244 1011 265 b 726 747 1011 726 883 747 l 421 747 l 421 538 l 689 538 l 689 454 l 421 454 "},"E":{"ha":1217,"x_min":0,"x_max":0,"o":"m 1124 992 l 1124 767 l 383 767 l 383 608 l 1096 608 l 1096 383 l 383 383 l 383 225 l 1124 225 l 1124 0 l 96 0 l 96 992 "},"É":{"ha":1217,"x_min":0,"x_max":0,"o":"m 368 1107 l 368 1250 l 908 1361 l 908 1218 m 96 992 l 1124 992 l 1124 767 l 383 767 l 383 608 l 1096 608 l 1096 383 l 383 383 l 383 225 l 1124 225 l 1124 0 l 96 0 "},"Ě":{"ha":1217,"x_min":0,"x_max":0,"o":"m 639 1235 l 926 1346 l 926 1197 l 639 1086 l 351 1197 l 351 1346 m 96 992 l 1124 992 l 1124 767 l 383 767 l 383 608 l 1096 608 l 1096 383 l 383 383 l 383 225 l 1124 225 l 1124 0 l 96 0 "},"Ê":{"ha":1217,"x_min":0,"x_max":0,"o":"m 639 1361 l 926 1250 l 926 1101 l 639 1213 l 351 1101 l 351 1250 m 96 992 l 1124 992 l 1124 767 l 383 767 l 383 608 l 1096 608 l 1096 383 l 383 383 l 383 225 l 1124 225 l 1124 0 l 96 0 "},"Ë":{"ha":1217,"x_min":0,"x_max":0,"o":"m 338 1139 l 338 1278 l 579 1278 l 579 1139 m 699 1139 l 699 1278 l 940 1278 l 940 1139 m 96 992 l 1124 992 l 1124 767 l 383 767 l 383 608 l 1096 608 l 1096 383 l 383 383 l 383 225 l 1124 225 l 1124 0 l 96 0 "},"Ė":{"ha":1217,"x_min":0,"x_max":0,"o":"m 508 1139 l 508 1278 l 769 1278 l 769 1139 m 96 992 l 1124 992 l 1124 767 l 383 767 l 383 608 l 1096 608 l 1096 383 l 383 383 l 383 225 l 1124 225 l 1124 0 l 96 0 "},"È":{"ha":1217,"x_min":0,"x_max":0,"o":"m 368 1218 l 368 1361 l 908 1250 l 908 1107 m 96 992 l 1124 992 l 1124 767 l 383 767 l 383 608 l 1096 608 l 1096 383 l 383 383 l 383 225 l 1124 225 l 1124 0 l 96 0 "},"Ē":{"ha":1217,"x_min":0,"x_max":0,"o":"m 313 1139 l 313 1278 l 964 1278 l 964 1139 m 96 992 l 1124 992 l 1124 767 l 383 767 l 383 608 l 1096 608 l 1096 383 l 383 383 l 383 225 l 1124 225 l 1124 0 l 96 0 "},"Ę":{"ha":1217,"x_min":0,"x_max":0,"o":"m 96 0 l 96 992 l 1124 992 l 1124 767 l 383 767 l 383 608 l 1096 608 l 1096 383 l 383 383 l 383 225 l 1124 225 l 1124 0 l 1088 0 b 922 -94 963 -14 922 -47 b 1124 -171 922 -165 1003 -171 l 1124 -347 b 683 -151 863 -347 683 -301 b 861 0 683 -78 735 -22 "},"F":{"ha":1217,"x_min":0,"x_max":0,"o":"m 1124 992 l 1124 747 l 383 747 l 383 536 l 1040 536 l 1040 293 l 383 293 l 383 0 l 96 0 l 96 992 "},"G":{"ha":1383,"x_min":0,"x_max":0,"o":"m 82 497 b 710 1019 82 835 336 1019 b 1300 631 1063 1019 1281 854 l 994 631 b 711 775 976 707 890 775 b 383 488 453 775 383 624 b 746 197 383 350 449 197 b 1057 258 881 197 965 219 l 1057 353 l 706 353 l 706 540 l 1300 540 l 1300 117 b 731 -28 1096 3 926 -28 b 82 497 340 -28 82 157 "},"Ğ":{"ha":1383,"x_min":0,"x_max":0,"o":"m 549 1357 b 706 1228 549 1265 603 1228 b 864 1357 808 1228 864 1265 l 1021 1357 b 706 1093 1021 1154 878 1093 b 390 1357 533 1093 390 1154 m 82 497 b 710 1019 82 835 336 1019 b 1300 631 1063 1019 1281 854 l 994 631 b 711 775 976 707 890 775 b 383 488 453 775 383 624 b 746 197 383 350 449 197 b 1057 258 881 197 965 219 l 1057 353 l 706 353 l 706 540 l 1300 540 l 1300 117 b 731 -28 1096 3 926 -28 b 82 497 340 -28 82 157 "},"Ģ":{"ha":1383,"x_min":0,"x_max":0,"o":"m 82 497 b 710 1019 82 835 336 1019 b 1300 631 1063 1019 1281 854 l 994 631 b 711 775 976 707 890 775 b 383 488 453 775 383 624 b 746 197 383 350 449 197 b 1057 258 881 197 965 219 l 1057 353 l 706 353 l 706 540 l 1300 540 l 1300 117 b 731 -28 1096 3 926 -28 b 82 497 340 -28 82 157 m 617 -101 l 860 -101 l 860 -260 l 735 -412 l 617 -412 l 703 -260 l 617 -260 "},"Ġ":{"ha":1383,"x_min":0,"x_max":0,"o":"m 576 1278 l 836 1278 l 836 1139 l 576 1139 m 82 497 b 710 1019 82 835 336 1019 b 1300 631 1063 1019 1281 854 l 994 631 b 711 775 976 707 890 775 b 383 488 453 775 383 624 b 746 197 383 350 449 197 b 1057 258 881 197 965 219 l 1057 353 l 706 353 l 706 540 l 1300 540 l 1300 117 b 731 -28 1096 3 926 -28 b 82 497 340 -28 82 157 "},"H":{"ha":1431,"x_min":0,"x_max":0,"o":"m 1047 618 l 1047 992 l 1335 992 l 1335 0 l 1047 0 l 1047 374 l 383 374 l 383 0 l 96 0 l 96 992 l 383 992 l 383 618 "},"Ħ":{"ha":1553,"x_min":0,"x_max":0,"o":"m 1394 992 l 1394 872 l 1492 872 l 1492 733 l 1394 733 l 1394 0 l 1108 0 l 1108 374 l 443 374 l 443 0 l 157 0 l 157 733 l 60 733 l 60 872 l 157 872 l 157 992 l 443 992 l 443 872 l 1108 872 l 1108 992 m 443 733 l 443 618 l 1108 618 l 1108 733 "},"I":{"ha":479,"x_min":0,"x_max":0,"o":"m 383 992 l 383 0 l 96 0 l 96 992 "},"Í":{"ha":479,"x_min":0,"x_max":0,"o":"m -32 1250 l 510 1361 l 510 1218 l -32 1107 m 383 992 l 383 0 l 96 0 l 96 992 "},"Î":{"ha":479,"x_min":0,"x_max":0,"o":"m 240 1361 l 528 1250 l 528 1101 l 240 1213 l -49 1101 l -49 1250 m 96 0 l 96 992 l 383 992 l 383 0 "},"Ï":{"ha":479,"x_min":0,"x_max":0,"o":"m -61 1278 l 179 1278 l 179 1139 l -61 1139 m 300 1278 l 540 1278 l 540 1139 l 300 1139 m 383 992 l 383 0 l 96 0 l 96 992 "},"İ":{"ha":479,"x_min":0,"x_max":0,"o":"m 110 1278 l 369 1278 l 369 1139 l 110 1139 m 383 992 l 383 0 l 96 0 l 96 992 "},"Ì":{"ha":479,"x_min":0,"x_max":0,"o":"m 510 1250 l 510 1107 l -32 1218 l -32 1361 m 383 992 l 383 0 l 96 0 l 96 992 "},"Ī":{"ha":479,"x_min":0,"x_max":0,"o":"m -87 1278 l 565 1278 l 565 1139 l -87 1139 m 383 992 l 383 0 l 96 0 l 96 992 "},"Į":{"ha":490,"x_min":0,"x_max":0,"o":"m 225 -94 b 426 -171 225 -165 304 -171 l 426 -347 b -14 -151 164 -347 -14 -301 b 150 0 -14 -74 36 -32 l 93 0 l 93 992 l 379 992 l 379 0 l 389 0 b 225 -94 264 -14 225 -47 "},"J":{"ha":1360,"x_min":0,"x_max":0,"o":"m 1263 992 l 1263 488 b 679 -24 1263 150 1088 -24 b 96 488 279 -24 96 149 l 383 488 b 679 221 383 367 421 221 b 976 488 939 221 976 368 l 976 747 l 563 747 l 563 992 "},"K":{"ha":1415,"x_min":0,"x_max":0,"o":"m 1333 992 l 831 574 l 1333 0 l 972 0 l 622 400 l 383 201 l 383 0 l 96 0 l 96 992 l 383 992 l 383 547 l 903 992 "},"Ķ":{"ha":1415,"x_min":0,"x_max":0,"o":"m 1333 992 l 831 574 l 1333 0 l 972 0 l 622 400 l 383 201 l 383 0 l 96 0 l 96 992 l 383 992 l 383 547 l 903 992 m 544 -260 l 544 -101 l 788 -101 l 788 -260 l 663 -412 l 544 -412 l 631 -260 "},"L":{"ha":1143,"x_min":0,"x_max":0,"o":"m 383 992 l 383 244 l 1071 244 l 1071 0 l 96 0 l 96 992 "},"Ĺ":{"ha":1143,"x_min":0,"x_max":0,"o":"m 96 1250 l 636 1361 l 636 1218 l 96 1107 m 383 992 l 383 244 l 1071 244 l 1071 0 l 96 0 l 96 992 "},"Ľ":{"ha":1143,"x_min":0,"x_max":0,"o":"m 383 992 l 383 244 l 1071 244 l 1071 0 l 96 0 l 96 992 m 957 786 l 832 633 l 714 633 l 800 786 l 714 786 l 714 944 l 957 944 "},"Ļ":{"ha":1143,"x_min":0,"x_max":0,"o":"m 383 992 l 383 244 l 1071 244 l 1071 0 l 96 0 l 96 992 m 550 -260 l 464 -260 l 464 -101 l 707 -101 l 707 -260 l 582 -412 l 464 -412 "},"Ł":{"ha":1293,"x_min":0,"x_max":0,"o":"m 483 510 l 483 244 l 1171 244 l 1171 0 l 197 0 l 197 414 l 50 361 l 50 538 l 197 590 l 197 992 l 483 992 l 483 685 l 821 813 l 821 636 "},"M":{"ha":1778,"x_min":0,"x_max":0,"o":"m 96 0 l 96 992 l 544 992 l 889 333 l 1233 992 l 1681 992 l 1681 0 l 1394 0 l 1394 718 l 1021 0 l 756 0 l 383 718 l 383 0 "},"N":{"ha":1486,"x_min":0,"x_max":0,"o":"m 1103 281 l 1103 992 l 1389 992 l 1389 0 l 968 0 l 383 711 l 383 0 l 96 0 l 96 992 l 518 992 "},"Ń":{"ha":1486,"x_min":0,"x_max":0,"o":"m 481 1250 l 1021 1361 l 1021 1218 l 481 1107 m 1103 281 l 1103 992 l 1389 992 l 1389 0 l 968 0 l 383 711 l 383 0 l 96 0 l 96 992 l 518 992 "},"Ň":{"ha":1486,"x_min":0,"x_max":0,"o":"m 751 1235 l 1039 1346 l 1039 1197 l 751 1086 l 464 1197 l 464 1346 m 518 992 l 1103 281 l 1103 992 l 1389 992 l 1389 0 l 968 0 l 383 711 l 383 0 l 96 0 l 96 992 "},"Ņ":{"ha":1486,"x_min":0,"x_max":0,"o":"m 1103 281 l 1103 992 l 1389 992 l 1389 0 l 968 0 l 383 711 l 383 0 l 96 0 l 96 992 l 518 992 m 642 -260 l 556 -260 l 556 -101 l 799 -101 l 799 -260 l 672 -412 l 556 -412 "},"Ŋ":{"ha":1486,"x_min":0,"x_max":0,"o":"m 1103 281 l 1103 992 l 1389 992 l 1389 0 b 1003 -375 1389 -240 1275 -375 b 757 -350 921 -375 836 -367 l 757 -132 b 940 -150 825 -143 867 -150 b 1089 0 1058 -150 1089 -103 l 968 0 l 383 711 l 383 0 l 96 0 l 96 992 l 518 992 "},"Ñ":{"ha":1486,"x_min":0,"x_max":0,"o":"m 599 1217 b 515 1092 533 1217 515 1171 l 329 1092 b 556 1385 329 1240 385 1385 b 904 1256 726 1385 800 1256 b 988 1381 969 1256 988 1301 l 1174 1381 b 947 1088 1174 1232 1119 1088 b 599 1217 776 1088 703 1217 m 1103 281 l 1103 992 l 1389 992 l 1389 0 l 968 0 l 383 711 l 383 0 l 96 0 l 96 992 l 518 992 "},"O":{"ha":1453,"x_min":0,"x_max":0,"o":"m 726 -28 b 82 497 308 -28 82 167 b 726 1019 82 826 308 1019 b 1371 497 1143 1019 1371 825 b 726 -28 1371 168 1143 -28 m 726 217 b 1071 497 971 217 1071 324 b 726 775 1071 669 972 775 b 383 497 482 775 383 671 b 726 217 383 322 483 217 "},"Ó":{"ha":1453,"x_min":0,"x_max":0,"o":"m 456 1250 l 996 1361 l 996 1218 l 456 1107 m 726 -28 b 82 497 308 -28 82 167 b 726 1019 82 826 308 1019 b 1371 497 1143 1019 1371 825 b 726 -28 1371 168 1143 -28 m 726 217 b 1071 497 971 217 1071 324 b 726 775 1071 669 972 775 b 383 497 482 775 383 671 b 726 217 383 322 483 217 "},"Ô":{"ha":1453,"x_min":0,"x_max":0,"o":"m 1014 1101 l 726 1213 l 439 1101 l 439 1250 l 726 1361 l 1014 1250 m 726 1019 b 1371 497 1143 1019 1371 825 b 726 -28 1371 168 1143 -28 b 82 497 308 -28 82 167 b 726 1019 82 826 308 1019 m 726 217 b 1071 497 971 217 1071 324 b 726 775 1071 669 972 775 b 383 497 482 775 383 671 b 726 217 383 322 483 217 "},"Ö":{"ha":1453,"x_min":0,"x_max":0,"o":"m 425 1278 l 667 1278 l 667 1139 l 425 1139 m 786 1278 l 1028 1278 l 1028 1139 l 786 1139 m 726 -28 b 82 497 308 -28 82 167 b 726 1019 82 826 308 1019 b 1371 497 1143 1019 1371 825 b 726 -28 1371 168 1143 -28 m 726 217 b 1071 497 971 217 1071 324 b 726 775 1071 669 972 775 b 383 497 482 775 383 671 b 726 217 383 322 483 217 "},"Ò":{"ha":1453,"x_min":0,"x_max":0,"o":"m 996 1250 l 996 1107 l 456 1218 l 456 1361 m 726 -28 b 82 497 308 -28 82 167 b 726 1019 82 826 308 1019 b 1371 497 1143 1019 1371 825 b 726 -28 1371 168 1143 -28 m 726 217 b 1071 497 971 217 1071 324 b 726 775 1071 669 972 775 b 383 497 482 775 383 671 b 726 217 383 322 483 217 "},"Ő":{"ha":1453,"x_min":0,"x_max":0,"o":"m 425 1267 l 713 1378 l 713 1229 l 425 1118 m 796 1267 l 1083 1378 l 1083 1229 l 796 1118 m 726 -28 b 82 497 308 -28 82 167 b 726 1019 82 826 308 1019 b 1371 497 1143 1019 1371 825 b 726 -28 1371 168 1143 -28 m 726 217 b 1071 497 971 217 1071 324 b 726 775 1071 669 972 775 b 383 497 482 775 383 671 b 726 217 383 322 483 217 "},"Ō":{"ha":1453,"x_min":0,"x_max":0,"o":"m 400 1278 l 1051 1278 l 1051 1139 l 400 1139 m 726 -28 b 82 497 308 -28 82 167 b 726 1019 82 826 308 1019 b 1371 497 1143 1019 1371 825 b 726 -28 1371 168 1143 -28 m 726 217 b 1071 497 971 217 1071 324 b 726 775 1071 669 972 775 b 383 497 482 775 383 671 b 726 217 383 322 483 217 "},"Ø":{"ha":1453,"x_min":0,"x_max":0,"o":"m 914 1004 b 1371 497 1211 953 1371 772 b 726 -28 1371 168 1143 -28 l 704 -28 l 665 -219 l 501 -219 l 543 -14 b 82 497 243 38 82 218 b 726 1019 82 826 308 1019 l 754 1019 l 789 1193 l 951 1193 m 383 497 b 593 231 383 358 446 264 l 704 775 b 383 497 476 768 383 665 m 754 217 b 1071 497 978 225 1071 331 b 864 761 1071 633 1010 726 "},"Õ":{"ha":1453,"x_min":0,"x_max":0,"o":"m 304 1092 b 532 1385 304 1240 360 1385 b 879 1256 703 1385 776 1256 b 963 1381 944 1256 963 1301 l 1149 1381 b 922 1088 1149 1232 1094 1088 b 574 1217 751 1088 678 1217 b 490 1092 508 1217 490 1171 m 726 -28 b 82 497 308 -28 82 167 b 726 1019 82 826 308 1019 b 1371 497 1143 1019 1371 825 b 726 -28 1371 168 1143 -28 m 726 217 b 1071 497 971 217 1071 324 b 726 775 1071 669 972 775 b 383 497 482 775 383 671 b 726 217 383 322 483 217 "},"Œ":{"ha":2354,"x_min":0,"x_max":0,"o":"m 2261 992 l 2261 767 l 1521 767 l 1521 608 l 2233 608 l 2233 383 l 1521 383 l 1521 225 l 2261 225 l 2261 0 l 1233 0 l 1233 139 b 726 -28 1126 31 954 -28 b 82 497 308 -28 82 167 b 726 1019 82 826 308 1019 b 1233 854 954 1019 1126 961 l 1233 992 m 726 217 b 1071 497 971 217 1071 324 b 726 775 1071 669 972 775 b 383 497 482 775 383 671 b 726 217 383 322 483 217 "},"P":{"ha":1349,"x_min":0,"x_max":0,"o":"m 96 992 l 875 992 b 1267 624 1115 992 1267 854 b 875 254 1267 392 1115 254 l 383 254 l 383 0 l 96 0 m 383 747 l 383 499 l 796 499 b 967 624 874 499 967 499 b 796 747 967 747 874 747 "},"Þ":{"ha":1343,"x_min":0,"x_max":0,"o":"m 388 992 l 388 863 l 869 863 b 1261 503 1110 863 1261 725 b 869 144 1261 282 1110 144 l 388 144 l 388 0 l 96 0 l 96 992 m 388 618 l 388 389 l 790 389 b 961 503 868 389 961 389 b 790 618 961 618 868 618 "},"Q":{"ha":1444,"x_min":0,"x_max":0,"o":"m 1382 56 l 1236 -90 l 1094 42 b 726 -28 996 -4 872 -28 b 83 497 308 -28 83 167 b 726 1019 83 826 308 1019 b 1371 497 1143 1019 1371 825 b 1261 168 1371 364 1333 253 m 726 217 b 885 236 789 217 842 224 l 731 381 l 876 526 l 1046 368 b 1071 497 1063 406 1071 449 b 726 775 1071 669 972 775 b 383 497 482 775 383 671 b 726 217 383 322 483 217 "},"R":{"ha":1368,"x_min":0,"x_max":0,"o":"m 1082 406 b 1253 218 1189 396 1253 331 l 1253 0 l 967 0 l 967 164 b 847 282 967 257 944 282 l 383 282 l 383 0 l 96 0 l 96 992 l 857 992 b 1258 679 1115 992 1258 889 b 1082 406 1258 533 1194 447 m 383 757 l 383 517 l 786 517 b 957 636 874 517 957 517 b 786 757 957 757 874 757 "},"Ŕ":{"ha":1368,"x_min":0,"x_max":0,"o":"m 372 1250 l 913 1361 l 913 1218 l 372 1107 m 1082 406 b 1253 218 1189 396 1253 331 l 1253 0 l 967 0 l 967 164 b 847 282 967 257 944 282 l 383 282 l 383 0 l 96 0 l 96 992 l 857 992 b 1258 679 1115 992 1258 889 b 1082 406 1258 533 1194 447 m 383 757 l 383 517 l 786 517 b 957 636 874 517 957 517 b 786 757 957 757 874 757 "},"Ř":{"ha":1368,"x_min":0,"x_max":0,"o":"m 931 1346 l 931 1197 l 643 1086 l 356 1197 l 356 1346 l 643 1235 m 1082 406 b 1253 218 1189 396 1253 331 l 1253 0 l 967 0 l 967 164 b 847 282 967 257 944 282 l 383 282 l 383 0 l 96 0 l 96 992 l 857 992 b 1258 679 1115 992 1258 889 b 1082 406 1258 533 1194 447 m 383 757 l 383 517 l 786 517 b 957 636 874 517 957 517 b 786 757 957 757 874 757 "},"Ŗ":{"ha":1368,"x_min":0,"x_max":0,"o":"m 1082 406 b 1253 218 1189 396 1253 331 l 1253 0 l 967 0 l 967 164 b 847 282 967 257 944 282 l 383 282 l 383 0 l 96 0 l 96 992 l 857 992 b 1258 679 1115 992 1258 889 b 1082 406 1258 533 1194 447 m 383 757 l 383 517 l 786 517 b 957 636 874 517 957 517 b 786 757 957 757 874 757 m 657 -260 l 572 -260 l 572 -101 l 815 -101 l 815 -260 l 689 -412 l 572 -412 "},"S":{"ha":1407,"x_min":0,"x_max":0,"o":"m 383 325 b 726 188 383 242 465 188 b 1024 288 965 188 1024 225 b 685 392 1024 360 979 372 b 106 719 283 419 106 500 b 672 1019 106 926 329 1019 b 1282 683 1054 1019 1274 904 l 982 683 b 664 804 982 771 886 804 b 406 715 453 804 406 769 b 722 613 406 654 453 635 b 1324 300 1086 585 1324 560 b 736 -28 1324 46 1089 -28 b 82 325 335 -28 96 64 "},"Ś":{"ha":1407,"x_min":0,"x_max":0,"o":"m 432 1250 l 972 1361 l 972 1218 l 432 1107 m 383 325 b 726 188 383 242 465 188 b 1024 288 965 188 1024 225 b 685 392 1024 360 979 372 b 106 719 283 419 106 500 b 672 1019 106 926 329 1019 b 1282 683 1054 1019 1274 904 l 982 683 b 664 804 982 771 886 804 b 406 715 453 804 406 769 b 722 613 406 654 453 635 b 1324 300 1086 585 1324 560 b 736 -28 1324 46 1089 -28 b 82 325 335 -28 96 64 "},"Š":{"ha":1407,"x_min":0,"x_max":0,"o":"m 990 1197 l 703 1086 l 415 1197 l 415 1346 l 703 1235 l 990 1346 m 722 613 b 1324 300 1086 585 1324 560 b 736 -28 1324 46 1089 -28 b 82 325 335 -28 96 64 l 383 325 b 726 188 383 242 465 188 b 1024 288 965 188 1024 225 b 685 392 1024 360 979 372 b 106 719 283 419 106 500 b 672 1019 106 926 329 1019 b 1282 683 1054 1019 1274 904 l 982 683 b 664 804 982 771 886 804 b 406 715 453 804 406 769 b 722 613 406 654 453 635 "},"Ş":{"ha":1407,"x_min":0,"x_max":0,"o":"m 1324 300 b 750 -28 1324 49 1094 -26 l 732 -104 b 842 -83 760 -92 797 -83 b 983 -190 925 -83 983 -119 b 544 -333 983 -333 758 -360 l 544 -212 b 799 -189 718 -237 799 -236 b 753 -157 799 -167 781 -157 b 682 -178 732 -157 710 -164 l 586 -146 l 610 -25 b 82 325 285 -6 94 93 l 383 325 b 726 188 383 242 465 188 b 1024 288 965 188 1024 225 b 685 392 1024 360 979 372 b 106 719 283 419 106 500 b 672 1019 106 926 329 1019 b 1282 683 1054 1019 1274 904 l 982 683 b 664 804 982 771 886 804 b 406 715 453 804 406 769 b 722 613 406 654 453 635 b 1324 300 1086 585 1324 560 "},"Ș":{"ha":1407,"x_min":0,"x_max":0,"o":"m 383 325 b 726 188 383 242 465 188 b 1024 288 965 188 1024 225 b 685 392 1024 360 979 372 b 106 719 283 419 106 500 b 672 1019 106 926 329 1019 b 1282 683 1054 1019 1274 904 l 982 683 b 664 804 982 771 886 804 b 406 715 453 804 406 769 b 722 613 406 654 453 635 b 1324 300 1086 585 1324 560 b 736 -28 1324 46 1089 -28 b 82 325 335 -28 96 64 m 582 -115 l 825 -115 l 825 -274 l 699 -426 l 582 -426 l 668 -274 l 582 -274 "},"T":{"ha":1360,"x_min":0,"x_max":0,"o":"m 82 992 l 1276 992 l 1276 747 l 824 747 l 824 0 l 536 0 l 536 747 l 82 747 "},"Ŧ":{"ha":1360,"x_min":0,"x_max":0,"o":"m 1276 992 l 1276 747 l 824 747 l 824 508 l 1144 508 l 1144 369 l 824 369 l 824 0 l 536 0 l 536 369 l 215 369 l 215 508 l 536 508 l 536 747 l 82 747 l 82 992 "},"Ť":{"ha":1360,"x_min":0,"x_max":0,"o":"m 967 1346 l 967 1197 l 679 1086 l 392 1197 l 392 1346 l 679 1235 m 1276 992 l 1276 747 l 824 747 l 824 0 l 536 0 l 536 747 l 82 747 l 82 992 "},"Ţ":{"ha":1360,"x_min":0,"x_max":0,"o":"m 1276 747 l 824 747 l 824 0 l 738 0 l 717 -89 b 826 -69 744 -78 782 -69 b 968 -176 908 -69 968 -106 b 529 -319 968 -319 743 -346 l 529 -199 b 782 -175 701 -224 782 -222 b 738 -143 782 -153 765 -143 b 667 -164 717 -143 693 -150 l 571 -132 l 597 0 l 536 0 l 536 747 l 82 747 l 82 992 l 1276 992 "},"Ț":{"ha":1360,"x_min":0,"x_max":0,"o":"m 1276 992 l 1276 747 l 824 747 l 824 0 l 536 0 l 536 747 l 82 747 l 82 992 m 644 -260 l 558 -260 l 558 -101 l 801 -101 l 801 -260 l 675 -412 l 558 -412 "},"U":{"ha":1415,"x_min":0,"x_max":0,"o":"m 1318 483 b 707 -28 1318 146 1133 -28 b 96 483 279 -28 96 144 l 96 992 l 383 992 l 383 493 b 707 217 383 361 431 217 b 1032 493 985 217 1032 363 l 1032 992 l 1318 992 "},"Ú":{"ha":1415,"x_min":0,"x_max":0,"o":"m 436 1250 l 976 1361 l 976 1218 l 436 1107 m 1318 483 b 707 -28 1318 146 1133 -28 b 96 483 279 -28 96 144 l 96 992 l 383 992 l 383 493 b 707 217 383 361 431 217 b 1032 493 985 217 1032 363 l 1032 992 l 1318 992 "},"Û":{"ha":1415,"x_min":0,"x_max":0,"o":"m 994 1101 l 707 1213 l 419 1101 l 419 1250 l 707 1361 l 994 1250 m 1032 992 l 1318 992 l 1318 483 b 707 -28 1318 146 1133 -28 b 96 483 279 -28 96 144 l 96 992 l 383 992 l 383 493 b 707 217 383 361 431 217 b 1032 493 985 217 1032 363 "},"Ü":{"ha":1415,"x_min":0,"x_max":0,"o":"m 407 1278 l 647 1278 l 647 1139 l 407 1139 m 768 1278 l 1008 1278 l 1008 1139 l 768 1139 m 1318 483 b 707 -28 1318 146 1133 -28 b 96 483 279 -28 96 144 l 96 992 l 383 992 l 383 493 b 707 217 383 361 431 217 b 1032 493 985 217 1032 363 l 1032 992 l 1318 992 "},"Ù":{"ha":1415,"x_min":0,"x_max":0,"o":"m 976 1250 l 976 1107 l 436 1218 l 436 1361 m 1318 483 b 707 -28 1318 146 1133 -28 b 96 483 279 -28 96 144 l 96 992 l 383 992 l 383 493 b 707 217 383 361 431 217 b 1032 493 985 217 1032 363 l 1032 992 l 1318 992 "},"Ű":{"ha":1415,"x_min":0,"x_max":0,"o":"m 406 1267 l 693 1378 l 693 1229 l 406 1118 m 776 1267 l 1064 1378 l 1064 1229 l 776 1118 m 1318 483 b 707 -28 1318 146 1133 -28 b 96 483 279 -28 96 144 l 96 992 l 383 992 l 383 493 b 707 217 383 361 431 217 b 1032 493 985 217 1032 363 l 1032 992 l 1318 992 "},"Ū":{"ha":1415,"x_min":0,"x_max":0,"o":"m 381 1278 l 1032 1278 l 1032 1139 l 381 1139 m 1318 483 b 707 -28 1318 146 1133 -28 b 96 483 279 -28 96 144 l 96 992 l 383 992 l 383 493 b 707 217 383 361 431 217 b 1032 493 985 217 1032 363 l 1032 992 l 1318 992 "},"Ų":{"ha":1415,"x_min":0,"x_max":0,"o":"m 1032 992 l 1318 992 l 1318 483 b 965 0 1318 224 1208 61 b 958 -1 963 0 961 -1 b 951 -3 957 -3 954 -3 b 825 -81 849 -28 825 -49 b 1040 -143 825 -143 925 -143 l 1040 -319 b 640 -161 781 -319 640 -297 b 764 -26 640 -108 674 -62 b 707 -28 746 -28 726 -28 b 96 483 279 -28 96 144 l 96 992 l 383 992 l 383 493 b 707 217 383 361 431 217 b 1032 493 985 217 1032 363 "},"Ů":{"ha":1415,"x_min":0,"x_max":0,"o":"m 707 1083 b 407 1267 493 1083 407 1151 b 707 1450 407 1382 493 1450 b 1008 1267 922 1450 1008 1382 b 707 1083 1008 1151 922 1083 m 707 1190 b 851 1267 797 1190 851 1211 b 707 1343 851 1322 797 1343 b 564 1267 618 1343 564 1322 b 707 1190 564 1211 618 1190 m 1318 483 b 707 -28 1318 146 1133 -28 b 96 483 279 -28 96 144 l 96 992 l 383 992 l 383 493 b 707 217 383 361 431 217 b 1032 493 985 217 1032 363 l 1032 992 l 1318 992 "},"V":{"ha":1583,"x_min":0,"x_max":0,"o":"m 1192 992 l 1500 992 l 990 0 l 593 0 l 82 992 l 392 992 l 792 201 "},"W":{"ha":2292,"x_min":0,"x_max":0,"o":"m 1915 992 l 2208 992 l 1847 0 l 1442 0 l 1144 769 l 840 0 l 436 0 l 82 992 l 375 992 l 642 221 l 951 992 l 1340 992 l 1642 221 "},"Ẃ":{"ha":2292,"x_min":0,"x_max":0,"o":"m 1415 1361 l 1415 1218 l 875 1107 l 875 1250 m 1915 992 l 2208 992 l 1847 0 l 1442 0 l 1144 769 l 840 0 l 436 0 l 82 992 l 375 992 l 642 221 l 951 992 l 1340 992 l 1642 221 "},"Ŵ":{"ha":2292,"x_min":0,"x_max":0,"o":"m 1433 1101 l 1146 1213 l 858 1101 l 858 1250 l 1146 1361 l 1433 1250 m 1915 992 l 2208 992 l 1847 0 l 1442 0 l 1144 769 l 840 0 l 436 0 l 82 992 l 375 992 l 642 221 l 951 992 l 1340 992 l 1642 221 "},"Ẅ":{"ha":2292,"x_min":0,"x_max":0,"o":"m 1086 1278 l 1086 1139 l 844 1139 l 844 1278 m 1447 1278 l 1447 1139 l 1206 1139 l 1206 1278 m 1915 992 l 2208 992 l 1847 0 l 1442 0 l 1144 769 l 840 0 l 436 0 l 82 992 l 375 992 l 642 221 l 951 992 l 1340 992 l 1642 221 "},"Ẁ":{"ha":2292,"x_min":0,"x_max":0,"o":"m 1415 1250 l 1415 1107 l 875 1218 l 875 1361 m 1915 992 l 2208 992 l 1847 0 l 1442 0 l 1144 769 l 840 0 l 436 0 l 82 992 l 375 992 l 642 221 l 951 992 l 1340 992 l 1642 221 "},"X":{"ha":1592,"x_min":0,"x_max":0,"o":"m 88 0 l 601 496 l 88 992 l 481 992 l 796 674 l 1111 992 l 1504 992 l 990 496 l 1504 0 l 1111 0 l 796 318 l 481 0 "},"Y":{"ha":1565,"x_min":0,"x_max":0,"o":"m 1121 992 l 1482 992 l 928 329 l 928 0 l 638 0 l 638 329 l 82 992 l 443 992 l 782 569 "},"Ý":{"ha":1565,"x_min":0,"x_max":0,"o":"m 1051 1361 l 1051 1218 l 511 1107 l 511 1250 m 1121 992 l 1482 992 l 928 329 l 928 0 l 638 0 l 638 329 l 82 992 l 443 992 l 782 569 "},"Ŷ":{"ha":1565,"x_min":0,"x_max":0,"o":"m 1069 1101 l 782 1213 l 494 1101 l 494 1250 l 782 1361 l 1069 1250 m 1121 992 l 1482 992 l 928 329 l 928 0 l 638 0 l 638 329 l 82 992 l 443 992 l 782 569 "},"Ÿ":{"ha":1565,"x_min":0,"x_max":0,"o":"m 722 1278 l 722 1139 l 481 1139 l 481 1278 m 1083 1278 l 1083 1139 l 842 1139 l 842 1278 m 1121 992 l 1482 992 l 928 329 l 928 0 l 638 0 l 638 329 l 82 992 l 443 992 l 782 569 "},"Ỳ":{"ha":1565,"x_min":0,"x_max":0,"o":"m 1051 1250 l 1051 1107 l 511 1218 l 511 1361 m 1121 992 l 1482 992 l 928 329 l 928 0 l 638 0 l 638 329 l 82 992 l 443 992 l 782 569 "},"Z":{"ha":1310,"x_min":0,"x_max":0,"o":"m 96 992 l 1213 992 l 1213 747 l 518 244 l 1213 244 l 1213 0 l 96 0 l 96 244 l 792 747 l 96 747 "},"Ź":{"ha":1310,"x_min":0,"x_max":0,"o":"m 924 1361 l 924 1218 l 383 1107 l 383 1250 m 1213 992 l 1213 747 l 518 244 l 1213 244 l 1213 0 l 96 0 l 96 244 l 792 747 l 96 747 l 96 992 "},"Ž":{"ha":1310,"x_min":0,"x_max":0,"o":"m 942 1197 l 654 1086 l 367 1197 l 367 1346 l 654 1235 l 942 1346 m 1213 992 l 1213 747 l 518 244 l 1213 244 l 1213 0 l 96 0 l 96 244 l 792 747 l 96 747 l 96 992 "},"Ż":{"ha":1310,"x_min":0,"x_max":0,"o":"m 785 1278 l 785 1139 l 525 1139 l 525 1278 m 1213 992 l 1213 747 l 518 244 l 1213 244 l 1213 0 l 96 0 l 96 244 l 792 747 l 96 747 l 96 992 "},"a":{"ha":1303,"x_min":0,"x_max":0,"o":"m 700 853 b 1221 422 1047 853 1218 740 l 1221 0 l 953 0 l 953 107 b 453 -18 800 24 621 -18 b 68 251 222 -18 68 57 b 553 536 68 474 310 536 b 953 486 699 536 836 514 b 656 657 944 631 792 657 b 188 589 519 657 381 639 l 136 778 b 700 853 313 822 494 853 m 543 178 b 953 247 654 178 840 217 l 953 318 b 586 360 844 342 719 360 b 350 265 429 360 350 333 b 543 178 350 197 413 178 "},"á":{"ha":1303,"x_min":0,"x_max":0,"o":"m 942 1194 l 942 1051 l 401 940 l 401 1083 m 700 853 b 1221 422 1047 853 1218 740 l 1221 0 l 953 0 l 953 107 b 453 -18 800 24 621 -18 b 68 251 222 -18 68 57 b 553 536 68 474 310 536 b 953 486 699 536 836 514 b 656 657 944 631 792 657 b 188 589 519 657 381 639 l 136 778 b 700 853 313 822 494 853 m 543 178 b 953 247 654 178 840 217 l 953 318 b 586 360 844 342 719 360 b 350 265 429 360 350 333 b 543 178 350 197 413 178 "},"ă":{"ha":1303,"x_min":0,"x_max":0,"o":"m 672 926 b 357 1190 500 926 357 988 l 515 1190 b 672 1061 515 1099 569 1061 b 829 1190 775 1061 829 1099 l 988 1190 b 672 926 988 988 844 926 m 700 853 b 1221 422 1047 853 1218 740 l 1221 0 l 953 0 l 953 107 b 453 -18 800 24 621 -18 b 68 251 222 -18 68 57 b 553 536 68 474 310 536 b 953 486 699 536 836 514 b 656 657 944 631 792 657 b 188 589 519 657 381 639 l 136 778 b 700 853 313 822 494 853 m 543 178 b 953 247 654 178 840 217 l 953 318 b 586 360 844 342 719 360 b 350 265 429 360 350 333 b 543 178 350 197 413 178 "},"â":{"ha":1303,"x_min":0,"x_max":0,"o":"m 960 935 l 672 1046 l 385 935 l 385 1083 l 672 1194 l 960 1083 m 700 853 b 1221 422 1047 853 1218 740 l 1221 0 l 953 0 l 953 107 b 453 -18 800 24 621 -18 b 68 251 222 -18 68 57 b 553 536 68 474 310 536 b 953 486 699 536 836 514 b 656 657 944 631 792 657 b 188 589 519 657 381 639 l 136 778 b 700 853 313 822 494 853 m 543 178 b 953 247 654 178 840 217 l 953 318 b 586 360 844 342 719 360 b 350 265 429 360 350 333 b 543 178 350 197 413 178 "},"ä":{"ha":1303,"x_min":0,"x_max":0,"o":"m 613 1111 l 613 972 l 371 972 l 371 1111 m 974 1111 l 974 972 l 732 972 l 732 1111 m 700 853 b 1221 422 1047 853 1218 740 l 1221 0 l 953 0 l 953 107 b 453 -18 800 24 621 -18 b 68 251 222 -18 68 57 b 553 536 68 474 310 536 b 953 486 699 536 836 514 b 656 657 944 631 792 657 b 188 589 519 657 381 639 l 136 778 b 700 853 313 822 494 853 m 543 178 b 953 247 654 178 840 217 l 953 318 b 586 360 844 342 719 360 b 350 265 429 360 350 333 b 543 178 350 197 413 178 "},"à":{"ha":1303,"x_min":0,"x_max":0,"o":"m 942 1083 l 942 940 l 401 1051 l 401 1194 m 700 853 b 1221 422 1047 853 1218 740 l 1221 0 l 953 0 l 953 107 b 453 -18 800 24 621 -18 b 68 251 222 -18 68 57 b 553 536 68 474 310 536 b 953 486 699 536 836 514 b 656 657 944 631 792 657 b 188 589 519 657 381 639 l 136 778 b 700 853 313 822 494 853 m 543 178 b 953 247 654 178 840 217 l 953 318 b 586 360 844 342 719 360 b 350 265 429 360 350 333 b 543 178 350 197 413 178 "},"ā":{"ha":1303,"x_min":0,"x_max":0,"o":"m 997 1111 l 997 972 l 346 972 l 346 1111 m 700 853 b 1221 422 1047 853 1218 740 l 1221 0 l 953 0 l 953 107 b 453 -18 800 24 621 -18 b 68 251 222 -18 68 57 b 553 536 68 474 310 536 b 953 486 699 536 836 514 b 656 657 944 631 792 657 b 188 589 519 657 381 639 l 136 778 b 700 853 313 822 494 853 m 543 178 b 953 247 654 178 840 217 l 953 318 b 586 360 844 342 719 360 b 350 265 429 360 350 333 b 543 178 350 197 413 178 "},"ą":{"ha":1333,"x_min":0,"x_max":0,"o":"m 1028 -94 b 1231 -171 1028 -165 1108 -171 l 1231 -347 b 790 -169 968 -347 790 -311 b 963 0 790 -87 850 -32 l 953 0 l 953 107 b 453 -18 800 24 621 -18 b 68 251 222 -18 68 57 b 553 536 68 474 310 536 b 953 486 699 536 836 514 b 656 657 944 631 792 657 b 188 589 519 657 381 639 l 136 778 b 700 853 313 822 494 853 b 1221 422 1047 853 1218 740 l 1221 0 l 1201 0 b 1028 -94 1068 -10 1028 -47 m 543 178 b 953 247 654 178 840 217 l 953 318 b 586 360 844 342 719 360 b 350 265 429 360 350 333 b 543 178 350 197 413 178 "},"å":{"ha":1303,"x_min":0,"x_max":0,"o":"m 672 917 b 371 1100 457 917 371 985 b 672 1283 371 1215 457 1283 b 974 1100 888 1283 974 1215 b 672 917 974 985 888 917 m 672 1176 b 529 1100 583 1176 529 1156 b 672 1024 529 1044 583 1024 b 815 1100 761 1024 815 1044 b 672 1176 815 1156 761 1176 m 700 853 b 1221 422 1047 853 1218 740 l 1221 0 l 953 0 l 953 107 b 453 -18 800 24 621 -18 b 68 251 222 -18 68 57 b 553 536 68 474 310 536 b 953 486 699 536 836 514 b 656 657 944 631 792 657 b 188 589 519 657 381 639 l 136 778 b 700 853 313 822 494 853 m 543 178 b 953 247 654 178 840 217 l 953 318 b 586 360 844 342 719 360 b 350 265 429 360 350 333 b 543 178 350 197 413 178 "},"ã":{"ha":1303,"x_min":0,"x_max":0,"o":"m 519 1050 b 436 925 454 1050 436 1004 l 250 925 b 476 1218 250 1074 306 1218 b 825 1089 647 1218 721 1089 b 908 1214 890 1089 908 1135 l 1094 1214 b 868 921 1094 1065 1040 921 b 519 1050 697 921 624 1050 m 700 853 b 1221 422 1047 853 1218 740 l 1221 0 l 953 0 l 953 107 b 453 -18 800 24 621 -18 b 68 251 222 -18 68 57 b 553 536 68 474 310 536 b 953 486 699 536 836 514 b 656 657 944 631 792 657 b 188 589 519 657 381 639 l 136 778 b 700 853 313 822 494 853 m 543 178 b 953 247 654 178 840 217 l 953 318 b 586 360 844 342 719 360 b 350 265 429 360 350 333 b 543 178 350 197 413 178 "},"æ":{"ha":2151,"x_min":0,"x_max":0,"o":"m 1519 178 b 1803 288 1694 178 1769 222 l 2069 288 b 1510 -28 2017 89 1839 -28 b 1014 139 1289 -28 1115 28 b 468 -18 882 32 676 -18 b 68 236 226 -18 68 57 b 581 511 68 458 319 511 l 896 511 b 626 638 896 619 738 638 b 232 567 511 638 393 618 l 146 749 b 638 843 303 813 475 843 b 1049 717 818 843 958 801 b 1497 853 1153 808 1311 853 b 2079 363 1839 853 2079 710 l 1193 363 b 1519 178 1214 225 1328 178 m 1497 665 b 1204 515 1343 665 1240 624 l 1796 515 b 1497 665 1760 624 1658 665 m 896 353 l 606 353 b 350 258 439 353 350 336 b 517 178 350 194 411 178 b 896 261 647 178 790 204 "},"b":{"ha":1318,"x_min":0,"x_max":0,"o":"m 767 853 b 1244 413 1008 853 1244 733 b 767 -28 1244 92 1008 -28 b 364 146 594 -28 447 26 l 364 0 l 96 0 l 96 1111 l 364 1111 l 364 679 b 767 853 447 799 594 853 m 665 197 b 964 413 864 197 964 272 b 665 628 964 551 864 628 b 364 413 468 628 364 551 b 665 197 364 272 468 197 "},"c":{"ha":1304,"x_min":0,"x_max":0,"o":"m 74 413 b 657 853 74 707 293 853 b 1231 496 983 853 1188 736 l 954 496 b 657 638 924 585 833 638 b 344 413 457 638 344 571 b 657 188 344 254 457 188 b 954 329 833 188 924 239 l 1231 329 b 657 -28 1188 89 983 -28 b 74 413 293 -28 74 118 "},"ć":{"ha":1304,"x_min":0,"x_max":0,"o":"m 388 1083 l 928 1194 l 928 1051 l 388 940 m 74 413 b 657 853 74 707 293 853 b 1231 496 983 853 1188 736 l 954 496 b 657 638 924 585 833 638 b 344 413 457 638 344 571 b 657 188 344 254 457 188 b 954 329 833 188 924 239 l 1231 329 b 657 -28 1188 89 983 -28 b 74 413 293 -28 74 118 "},"č":{"ha":1304,"x_min":0,"x_max":0,"o":"m 946 1031 l 658 919 l 371 1031 l 371 1179 l 658 1068 l 946 1179 m 657 188 b 954 329 833 188 924 239 l 1231 329 b 657 -28 1188 89 983 -28 b 74 413 293 -28 74 118 b 657 853 74 707 293 853 b 1231 496 983 853 1188 736 l 954 496 b 657 638 924 585 833 638 b 344 413 457 638 344 571 b 657 188 344 254 457 188 "},"ç":{"ha":1304,"x_min":0,"x_max":0,"o":"m 657 188 b 954 329 833 188 924 239 l 1231 329 b 694 -28 1189 99 999 -18 l 679 -93 b 788 -74 707 -82 743 -74 b 931 -181 871 -74 931 -110 b 492 -324 931 -324 706 -350 l 492 -203 b 744 -179 664 -228 744 -226 b 699 -147 744 -157 726 -147 b 629 -168 679 -147 656 -154 l 533 -136 l 556 -24 b 74 413 253 1 74 146 b 657 853 74 707 293 853 b 1231 496 983 853 1188 736 l 954 496 b 657 638 924 585 833 638 b 344 413 457 638 344 571 b 657 188 344 254 457 188 "},"ċ":{"ha":1304,"x_min":0,"x_max":0,"o":"m 528 1111 l 789 1111 l 789 972 l 528 972 m 74 413 b 657 853 74 707 293 853 b 1231 496 983 853 1188 736 l 954 496 b 657 638 924 585 833 638 b 344 413 457 638 344 571 b 657 188 344 254 457 188 b 954 329 833 188 924 239 l 1231 329 b 657 -28 1188 89 983 -28 b 74 413 293 -28 74 118 "},"d":{"ha":1318,"x_min":0,"x_max":0,"o":"m 954 1111 l 1221 1111 l 1221 0 l 954 0 l 954 146 b 550 -28 871 26 724 -28 b 74 413 308 -28 74 92 b 550 853 74 733 308 853 b 954 679 724 853 871 799 m 651 197 b 954 413 850 197 954 272 b 651 628 954 551 850 628 b 354 413 454 628 354 551 b 651 197 354 272 454 197 "},"ď":{"ha":1653,"x_min":0,"x_max":0,"o":"m 954 1111 l 1221 1111 l 1221 0 l 954 0 l 954 146 b 550 -28 871 26 724 -28 b 74 413 308 -28 74 92 b 550 853 74 733 308 853 b 954 679 724 853 871 799 m 1304 1111 l 1582 1111 l 1582 896 l 1449 608 l 1324 608 l 1406 896 l 1304 896 m 651 197 b 954 413 850 197 954 272 b 651 628 954 551 850 628 b 354 413 454 628 354 551 b 651 197 354 272 454 197 "},"đ":{"ha":1410,"x_min":0,"x_max":0,"o":"m 1340 1038 l 1340 899 l 1221 899 l 1221 0 l 954 0 l 954 146 b 550 -28 871 26 724 -28 b 74 413 308 -28 74 92 b 550 853 74 733 308 853 b 954 679 724 853 871 799 l 954 899 l 614 899 l 614 1038 l 954 1038 l 954 1111 l 1221 1111 l 1221 1038 m 651 197 b 954 413 850 197 954 272 b 651 628 954 551 850 628 b 354 413 454 628 354 551 b 651 197 354 272 454 197 "},"e":{"ha":1308,"x_min":0,"x_max":0,"o":"m 675 178 b 958 288 850 178 925 222 l 1226 288 b 667 -28 1172 89 994 -28 b 74 413 307 -28 74 118 b 653 853 74 707 319 853 b 1235 363 996 853 1235 710 l 349 363 b 675 178 369 225 483 178 m 653 665 b 360 515 499 665 396 624 l 953 515 b 653 665 917 624 814 665 "},"é":{"ha":1308,"x_min":0,"x_max":0,"o":"m 928 1194 l 928 1051 l 388 940 l 388 1083 m 675 178 b 958 288 850 178 925 222 l 1226 288 b 667 -28 1172 89 994 -28 b 74 413 307 -28 74 118 b 653 853 74 707 319 853 b 1235 363 996 853 1235 710 l 349 363 b 675 178 369 225 483 178 m 653 665 b 360 515 499 665 396 624 l 953 515 b 653 665 917 624 814 665 "},"ě":{"ha":1308,"x_min":0,"x_max":0,"o":"m 946 1031 l 658 919 l 371 1031 l 371 1179 l 658 1068 l 946 1179 m 675 178 b 958 288 850 178 925 222 l 1226 288 b 667 -28 1172 89 994 -28 b 74 413 307 -28 74 118 b 653 853 74 707 319 853 b 1235 363 996 853 1235 710 l 349 363 b 675 178 369 225 483 178 m 653 665 b 360 515 499 665 396 624 l 953 515 b 653 665 917 624 814 665 "},"ê":{"ha":1308,"x_min":0,"x_max":0,"o":"m 946 935 l 658 1046 l 371 935 l 371 1083 l 658 1194 l 946 1083 m 675 178 b 958 288 850 178 925 222 l 1226 288 b 667 -28 1172 89 994 -28 b 74 413 307 -28 74 118 b 653 853 74 707 319 853 b 1235 363 996 853 1235 710 l 349 363 b 675 178 369 225 483 178 m 653 665 b 360 515 499 665 396 624 l 953 515 b 653 665 917 624 814 665 "},"ë":{"ha":1308,"x_min":0,"x_max":0,"o":"m 597 1111 l 597 972 l 357 972 l 357 1111 m 958 1111 l 958 972 l 718 972 l 718 1111 m 675 178 b 958 288 850 178 925 222 l 1226 288 b 667 -28 1172 89 994 -28 b 74 413 307 -28 74 118 b 653 853 74 707 319 853 b 1235 363 996 853 1235 710 l 349 363 b 675 178 369 225 483 178 m 653 665 b 360 515 499 665 396 624 l 953 515 b 653 665 917 624 814 665 "},"ė":{"ha":1308,"x_min":0,"x_max":0,"o":"m 788 1111 l 788 972 l 528 972 l 528 1111 m 675 178 b 958 288 850 178 925 222 l 1226 288 b 667 -28 1172 89 994 -28 b 74 413 307 -28 74 118 b 653 853 74 707 319 853 b 1235 363 996 853 1235 710 l 349 363 b 675 178 369 225 483 178 m 653 665 b 360 515 499 665 396 624 l 953 515 b 653 665 917 624 814 665 "},"è":{"ha":1308,"x_min":0,"x_max":0,"o":"m 928 1083 l 928 940 l 388 1051 l 388 1194 m 675 178 b 958 288 850 178 925 222 l 1226 288 b 667 -28 1172 89 994 -28 b 74 413 307 -28 74 118 b 653 853 74 707 319 853 b 1235 363 996 853 1235 710 l 349 363 b 675 178 369 225 483 178 m 653 665 b 360 515 499 665 396 624 l 953 515 b 653 665 917 624 814 665 "},"ē":{"ha":1308,"x_min":0,"x_max":0,"o":"m 983 1111 l 983 972 l 332 972 l 332 1111 m 675 178 b 958 288 850 178 925 222 l 1226 288 b 667 -28 1172 89 994 -28 b 74 413 307 -28 74 118 b 653 853 74 707 319 853 b 1235 363 996 853 1235 710 l 349 363 b 675 178 369 225 483 178 m 653 665 b 360 515 499 665 396 624 l 953 515 b 653 665 917 624 814 665 "},"ę":{"ha":1289,"x_min":0,"x_max":0,"o":"m 675 178 b 958 288 850 178 925 222 l 1226 288 b 825 -17 1182 124 1053 15 b 750 -81 765 -36 750 -54 b 964 -143 750 -143 849 -143 l 964 -319 b 564 -157 704 -319 564 -293 b 685 -28 564 -106 596 -61 l 667 -28 b 74 413 307 -28 74 118 b 653 853 74 707 319 853 b 1235 363 996 853 1235 710 l 349 363 b 675 178 369 225 483 178 m 653 665 b 360 515 499 665 396 624 l 953 515 b 653 665 917 624 814 665 "},"f":{"ha":971,"x_min":0,"x_max":0,"o":"m 733 949 b 554 825 589 949 556 915 l 897 825 l 897 619 l 554 619 l 554 0 l 286 0 l 286 619 l 74 619 l 74 825 l 286 825 l 286 853 b 651 1135 286 1032 406 1135 b 897 1121 733 1135 804 1132 l 897 939 b 733 949 817 946 778 949 "},"g":{"ha":1318,"x_min":0,"x_max":0,"o":"m 954 825 l 1221 825 l 1221 93 b 701 -361 1219 -229 1043 -361 b 136 -292 478 -361 285 -326 l 167 -86 b 644 -146 332 -119 486 -146 b 954 99 853 -146 954 -85 l 954 161 b 554 -8 871 44 725 -8 b 74 422 314 -8 74 108 b 554 853 74 736 314 853 b 954 683 725 853 871 800 m 654 217 b 954 422 861 217 954 292 b 654 628 954 551 861 628 b 354 422 447 628 354 551 b 654 217 354 292 447 217 "},"ğ":{"ha":1318,"x_min":0,"x_max":0,"o":"m 649 926 b 333 1190 476 926 333 988 l 492 1190 b 649 1061 492 1099 546 1061 b 807 1190 751 1061 807 1099 l 964 1190 b 649 926 964 988 821 926 m 954 825 l 1221 825 l 1221 93 b 701 -361 1219 -229 1043 -361 b 136 -292 478 -361 285 -326 l 167 -86 b 644 -146 332 -119 486 -146 b 954 99 853 -146 954 -85 l 954 161 b 554 -8 871 44 725 -8 b 74 422 314 -8 74 108 b 554 853 74 736 314 853 b 954 683 725 853 871 800 m 654 217 b 954 422 861 217 954 292 b 654 628 954 551 861 628 b 354 422 447 628 354 551 b 654 217 354 292 447 217 "},"ģ":{"ha":1318,"x_min":0,"x_max":0,"o":"m 771 1135 l 771 976 l 528 976 l 528 1135 l 653 1288 l 771 1288 l 685 1135 m 954 825 l 1221 825 l 1221 93 b 701 -361 1219 -229 1043 -361 b 136 -292 478 -361 285 -326 l 167 -86 b 644 -146 332 -119 486 -146 b 954 99 853 -146 954 -85 l 954 161 b 554 -8 871 44 725 -8 b 74 422 314 -8 74 108 b 554 853 74 736 314 853 b 954 683 725 853 871 800 m 654 217 b 954 422 861 217 954 292 b 654 628 954 551 861 628 b 354 422 447 628 354 551 b 654 217 354 292 447 217 "},"ġ":{"ha":1318,"x_min":0,"x_max":0,"o":"m 779 1111 l 779 972 l 519 972 l 519 1111 m 954 825 l 1221 825 l 1221 93 b 701 -361 1219 -229 1043 -361 b 136 -292 478 -361 285 -326 l 167 -86 b 644 -146 332 -119 486 -146 b 954 99 853 -146 954 -85 l 954 161 b 554 -8 871 44 725 -8 b 74 422 314 -8 74 108 b 554 853 74 736 314 853 b 954 683 725 853 871 800 m 654 217 b 954 422 861 217 954 292 b 654 628 954 551 861 628 b 354 422 447 628 354 551 b 654 217 354 292 447 217 "},"h":{"ha":1379,"x_min":0,"x_max":0,"o":"m 843 853 b 1283 431 1107 853 1282 740 l 1283 0 l 1017 0 l 1017 340 b 725 628 1017 531 946 628 b 364 325 504 628 364 529 l 364 0 l 96 0 l 96 1111 l 364 1111 l 364 636 b 843 853 467 767 611 853 "},"ħ":{"ha":1468,"x_min":0,"x_max":0,"o":"m 931 853 b 1371 431 1194 853 1369 740 l 1371 0 l 1104 0 l 1104 340 b 813 628 1104 531 1033 628 b 451 325 593 628 451 529 l 451 0 l 185 0 l 185 899 l 68 899 l 68 1038 l 185 1038 l 185 1111 l 451 1111 l 451 1038 l 796 1038 l 796 899 l 451 899 l 451 636 b 931 853 554 767 700 853 "},"i":{"ha":460,"x_min":0,"x_max":0,"o":"m 96 1111 l 364 1111 l 364 917 l 96 917 m 96 825 l 364 825 l 364 0 l 96 0 "},"ı":{"ha":464,"x_min":0,"x_max":0,"o":"m 96 825 l 368 825 l 368 0 l 96 0 "},"í":{"ha":464,"x_min":0,"x_max":0,"o":"m -39 1083 l 501 1194 l 501 1051 l -39 940 m 96 825 l 368 825 l 368 0 l 96 0 "},"î":{"ha":464,"x_min":0,"x_max":0,"o":"m 232 1194 l 519 1083 l 519 935 l 232 1046 l -56 935 l -56 1083 m 96 0 l 96 825 l 368 825 l 368 0 "},"ï":{"ha":464,"x_min":0,"x_max":0,"o":"m -69 1111 l 172 1111 l 172 972 l -69 972 m 292 1111 l 533 1111 l 533 972 l 292 972 m 96 825 l 368 825 l 368 0 l 96 0 "},"ì":{"ha":464,"x_min":0,"x_max":0,"o":"m 501 1083 l 501 940 l -39 1051 l -39 1194 m 96 825 l 368 825 l 368 0 l 96 0 "},"ī":{"ha":464,"x_min":0,"x_max":0,"o":"m -94 1111 l 557 1111 l 557 972 l -94 972 m 96 825 l 368 825 l 368 0 l 96 0 "},"į":{"ha":474,"x_min":0,"x_max":0,"o":"m 368 1111 l 368 935 l 79 935 l 79 1111 m 232 -94 b 435 -171 232 -165 313 -171 l 435 -347 b -7 -151 172 -347 -7 -301 b 96 0 -7 -78 44 -36 l 96 825 l 368 825 l 368 0 l 378 0 b 232 -94 272 -14 232 -47 "},"j":{"ha":735,"x_min":0,"x_max":0,"o":"m 375 1111 l 643 1111 l 643 917 l 375 917 m 643 825 l 643 38 b 286 -361 643 -212 550 -361 b 40 -340 204 -361 119 -354 l 40 -132 b 211 -146 108 -140 150 -146 b 375 50 344 -146 375 -115 l 375 825 "},"k":{"ha":1333,"x_min":0,"x_max":0,"o":"m 1260 825 l 763 474 l 1260 0 l 911 0 l 567 333 l 364 190 l 364 0 l 96 0 l 96 1111 l 364 1111 l 364 483 l 842 825 "},"ķ":{"ha":1333,"x_min":0,"x_max":0,"o":"m 1260 825 l 763 474 l 1260 0 l 911 0 l 567 333 l 364 190 l 364 0 l 96 0 l 96 1111 l 364 1111 l 364 483 l 842 825 m 513 -260 l 513 -101 l 756 -101 l 756 -260 l 631 -412 l 513 -412 l 599 -260 "},"l":{"ha":460,"x_min":0,"x_max":0,"o":"m 96 1111 l 364 1111 l 364 0 l 96 0 "},"ĺ":{"ha":460,"x_min":0,"x_max":0,"o":"m -40 1369 l 500 1481 l 500 1339 l -40 1228 m 96 1111 l 364 1111 l 364 0 l 96 0 "},"ľ":{"ha":731,"x_min":0,"x_max":0,"o":"m 96 1111 l 364 1111 l 364 0 l 96 0 m 450 1083 l 693 1083 l 693 925 l 568 772 l 450 772 l 536 925 l 450 925 "},"ļ":{"ha":460,"x_min":0,"x_max":0,"o":"m 96 1111 l 364 1111 l 364 0 l 96 0 m 108 -101 l 351 -101 l 351 -260 l 226 -412 l 108 -412 l 194 -260 l 108 -260 "},"ł":{"ha":806,"x_min":0,"x_max":0,"o":"m 733 776 l 733 624 l 535 533 l 535 0 l 267 0 l 267 411 l 74 322 l 74 475 l 267 564 l 267 1111 l 535 1111 l 535 686 "},"m":{"ha":1967,"x_min":0,"x_max":0,"o":"m 96 0 l 96 825 l 364 825 l 364 672 b 742 853 454 785 575 853 b 1089 635 903 853 1033 789 b 1494 853 1182 769 1310 853 b 1869 454 1707 853 1868 740 l 1869 0 l 1603 0 l 1603 417 b 1381 628 1603 565 1536 628 b 1117 399 1244 628 1117 561 l 1117 0 l 850 0 l 850 417 b 628 628 850 565 783 628 b 364 399 490 628 364 561 l 364 0 "},"n":{"ha":1379,"x_min":0,"x_max":0,"o":"m 96 0 l 96 825 l 364 825 l 364 636 b 843 853 467 767 611 853 b 1283 431 1107 853 1282 740 l 1283 0 l 1017 0 l 1017 340 b 725 628 1017 531 946 628 b 364 325 504 628 364 529 l 364 0 "},"ń":{"ha":1379,"x_min":0,"x_max":0,"o":"m 436 940 l 436 1083 l 976 1194 l 976 1051 m 96 0 l 96 825 l 364 825 l 364 636 b 843 853 467 767 611 853 b 1283 431 1107 853 1282 740 l 1283 0 l 1017 0 l 1017 340 b 725 628 1017 531 946 628 b 364 325 504 628 364 529 l 364 0 "},"ň":{"ha":1379,"x_min":0,"x_max":0,"o":"m 904 1144 l 994 1076 l 797 954 l 510 996 l 419 1133 l 617 1103 m 843 853 b 1283 431 1107 853 1282 740 l 1283 0 l 1017 0 l 1017 340 b 725 628 1017 531 946 628 b 364 325 504 628 364 529 l 364 0 l 96 0 l 96 825 l 364 825 l 364 636 b 843 853 467 767 611 853 "},"ņ":{"ha":1379,"x_min":0,"x_max":0,"o":"m 843 853 b 1283 431 1107 853 1282 740 l 1283 0 l 1017 0 l 1017 340 b 725 628 1017 531 946 628 b 364 325 504 628 364 529 l 364 0 l 96 0 l 96 825 l 364 825 l 364 636 b 843 853 467 767 611 853 m 633 -307 l 589 -260 l 568 -144 l 760 -101 l 811 -217 l 713 -365 l 593 -412 "},"ŋ":{"ha":1379,"x_min":0,"x_max":0,"o":"m 843 853 b 1283 431 1107 853 1282 740 l 1283 0 b 900 -367 1283 -240 1168 -367 b 654 -346 818 -367 733 -360 l 654 -132 b 811 -146 722 -140 764 -146 b 1017 0 963 -146 1017 -119 l 1017 340 b 725 628 1017 531 946 628 b 364 325 504 628 364 529 l 364 0 l 96 0 l 96 825 l 364 825 l 364 636 b 843 853 467 767 611 853 "},"ñ":{"ha":1379,"x_min":0,"x_max":0,"o":"m 554 1050 b 471 925 489 1050 471 1004 l 285 925 b 511 1218 285 1074 340 1218 b 860 1089 682 1218 757 1089 b 943 1214 925 1089 943 1135 l 1129 1214 b 903 921 1129 1065 1075 921 b 554 1050 732 921 658 1050 m 843 853 b 1283 431 1107 853 1282 740 l 1283 0 l 1017 0 l 1017 340 b 725 628 1017 531 946 628 b 364 325 504 628 364 529 l 364 0 l 96 0 l 96 825 l 364 825 l 364 636 b 843 853 467 767 611 853 "},"o":{"ha":1318,"x_min":0,"x_max":0,"o":"m 658 -28 b 74 413 285 -28 74 131 b 658 853 74 694 285 853 b 1244 413 1033 853 1244 694 b 658 -28 1244 131 1033 -28 m 658 188 b 964 413 861 188 964 257 b 658 638 964 567 861 638 b 354 413 457 638 354 567 b 658 188 354 257 457 188 "},"ó":{"ha":1318,"x_min":0,"x_max":0,"o":"m 388 1083 l 928 1194 l 928 1051 l 388 940 m 658 -28 b 74 413 285 -28 74 131 b 658 853 74 694 285 853 b 1244 413 1033 853 1244 694 b 658 -28 1244 131 1033 -28 m 658 188 b 964 413 861 188 964 257 b 658 638 964 567 861 638 b 354 413 457 638 354 567 b 658 188 354 257 457 188 "},"ô":{"ha":1318,"x_min":0,"x_max":0,"o":"m 946 935 l 658 1046 l 371 935 l 371 1083 l 658 1194 l 946 1083 m 658 853 b 1244 413 1033 853 1244 694 b 658 -28 1244 131 1033 -28 b 74 413 285 -28 74 131 b 658 853 74 694 285 853 m 658 188 b 964 413 861 188 964 257 b 658 638 964 567 861 638 b 354 413 457 638 354 567 b 658 188 354 257 457 188 "},"ö":{"ha":1318,"x_min":0,"x_max":0,"o":"m 357 1111 l 599 1111 l 599 972 l 357 972 m 718 1111 l 960 1111 l 960 972 l 718 972 m 658 -28 b 74 413 285 -28 74 131 b 658 853 74 694 285 853 b 1244 413 1033 853 1244 694 b 658 -28 1244 131 1033 -28 m 658 188 b 964 413 861 188 964 257 b 658 638 964 567 861 638 b 354 413 457 638 354 567 b 658 188 354 257 457 188 "},"ò":{"ha":1318,"x_min":0,"x_max":0,"o":"m 928 1083 l 928 940 l 388 1051 l 388 1194 m 658 -28 b 74 413 285 -28 74 131 b 658 853 74 694 285 853 b 1244 413 1033 853 1244 694 b 658 -28 1244 131 1033 -28 m 658 188 b 964 413 861 188 964 257 b 658 638 964 567 861 638 b 354 413 457 638 354 567 b 658 188 354 257 457 188 "},"ő":{"ha":1318,"x_min":0,"x_max":0,"o":"m 357 1100 l 644 1211 l 644 1063 l 357 951 m 728 1100 l 1015 1211 l 1015 1063 l 728 951 m 658 -28 b 74 413 285 -28 74 131 b 658 853 74 694 285 853 b 1244 413 1033 853 1244 694 b 658 -28 1244 131 1033 -28 m 658 188 b 964 413 861 188 964 257 b 658 638 964 567 861 638 b 354 413 457 638 354 567 b 658 188 354 257 457 188 "},"ō":{"ha":1318,"x_min":0,"x_max":0,"o":"m 332 1111 l 983 1111 l 983 972 l 332 972 m 658 -28 b 74 413 285 -28 74 131 b 658 853 74 694 285 853 b 1244 413 1033 853 1244 694 b 658 -28 1244 131 1033 -28 m 658 188 b 964 413 861 188 964 257 b 658 638 964 567 861 638 b 354 413 457 638 354 567 b 658 188 354 257 457 188 "},"ø":{"ha":1318,"x_min":0,"x_max":0,"o":"m 857 835 b 1244 413 1107 786 1244 640 b 658 -28 1244 131 1033 -28 l 635 -28 l 593 -192 l 413 -192 l 460 -10 b 74 413 211 39 74 185 b 658 853 74 694 285 853 l 682 853 l 725 1017 l 904 1017 m 354 413 b 515 204 354 300 408 232 l 626 638 b 354 413 446 629 354 558 m 690 188 b 964 413 872 196 964 265 b 803 621 964 525 910 593 "},"õ":{"ha":1318,"x_min":0,"x_max":0,"o":"m 238 925 b 464 1218 238 1074 292 1218 b 811 1089 635 1218 708 1089 b 894 1214 876 1089 894 1135 l 1081 1214 b 854 921 1081 1065 1026 921 b 506 1050 683 921 610 1050 b 422 925 440 1050 422 1004 m 658 -28 b 74 413 285 -28 74 131 b 658 853 74 694 285 853 b 1244 413 1033 853 1244 694 b 658 -28 1244 131 1033 -28 m 658 188 b 964 413 861 188 964 257 b 658 638 964 567 861 638 b 354 413 457 638 354 567 b 658 188 354 257 457 188 "},"œ":{"ha":2278,"x_min":0,"x_max":0,"o":"m 1644 178 b 1928 288 1821 178 1896 222 l 2196 288 b 1636 -28 2143 89 1965 -28 b 1144 135 1418 -28 1246 26 b 658 -28 1047 29 882 -28 b 74 413 285 -28 74 131 b 658 853 74 694 285 853 b 1146 689 883 853 1049 796 b 1624 853 1249 799 1419 853 b 2206 363 1965 853 2206 710 l 1319 363 b 1644 178 1340 225 1454 178 m 1624 665 b 1331 515 1469 665 1367 624 l 1922 515 b 1624 665 1886 624 1785 665 m 658 188 b 964 413 861 188 964 257 b 658 638 964 567 861 638 b 354 413 457 638 354 567 b 658 188 354 257 457 188 "},"p":{"ha":1318,"x_min":0,"x_max":0,"o":"m 767 853 b 1244 413 1008 853 1244 733 b 767 -28 1244 92 1008 -28 b 364 146 594 -28 447 26 l 364 -333 l 96 -333 l 96 825 l 364 825 l 364 679 b 767 853 447 799 594 853 m 665 197 b 964 413 864 197 964 272 b 661 628 964 551 858 628 b 364 413 464 628 364 551 b 665 197 364 272 468 197 "},"þ":{"ha":1322,"x_min":0,"x_max":0,"o":"m 772 843 b 1229 413 1010 843 1229 744 b 772 -18 1229 81 1010 -18 b 378 133 604 -18 464 33 l 378 -240 l 96 -240 l 96 1111 l 378 1111 l 378 690 b 772 843 464 792 604 843 m 663 217 b 949 413 856 217 949 272 b 663 608 949 551 856 608 b 378 413 471 608 378 551 b 663 217 378 272 471 217 "},"q":{"ha":1318,"x_min":0,"x_max":0,"o":"m 954 825 l 1221 825 l 1221 -333 l 954 -333 l 954 146 b 550 -28 871 26 724 -28 b 74 413 308 -28 74 92 b 550 853 74 733 308 853 b 954 679 724 853 871 799 m 651 197 b 954 413 850 197 954 272 b 656 628 954 551 854 628 b 354 413 458 628 354 551 b 651 197 354 272 454 197 "},"r":{"ha":1003,"x_min":0,"x_max":0,"o":"m 726 853 b 935 815 810 853 869 839 l 935 581 b 719 618 847 610 789 618 b 364 447 617 618 499 590 l 364 0 l 96 0 l 96 825 l 364 825 l 364 657 b 726 853 468 804 582 853 "},"ŕ":{"ha":1003,"x_min":0,"x_max":0,"o":"m 761 1194 l 761 1051 l 221 940 l 221 1083 m 726 853 b 935 815 810 853 869 839 l 935 581 b 719 618 847 610 789 618 b 364 447 617 618 499 590 l 364 0 l 96 0 l 96 825 l 364 825 l 364 657 b 726 853 468 804 582 853 "},"ř":{"ha":1003,"x_min":0,"x_max":0,"o":"m 779 1031 l 492 919 l 204 1031 l 204 1179 l 492 1068 l 779 1179 m 726 853 b 935 815 810 853 869 839 l 935 581 b 719 618 847 610 789 618 b 364 447 617 618 499 590 l 364 0 l 96 0 l 96 825 l 364 825 l 364 657 b 726 853 468 804 582 853 "},"ŗ":{"ha":1003,"x_min":0,"x_max":0,"o":"m 726 853 b 935 815 810 853 869 839 l 935 581 b 719 618 847 610 789 618 b 364 447 617 618 499 590 l 364 0 l 96 0 l 96 825 l 364 825 l 364 657 b 726 853 468 804 582 853 m 108 -260 l 108 -101 l 351 -101 l 351 -260 l 226 -412 l 108 -412 l 194 -260 "},"s":{"ha":1276,"x_min":0,"x_max":0,"o":"m 354 278 b 660 158 358 196 424 158 b 922 247 885 158 922 186 b 619 336 922 313 876 318 b 100 582 272 361 100 392 b 635 853 100 799 344 853 b 1176 578 928 853 1161 793 l 894 578 b 624 675 890 654 810 675 b 382 601 436 675 382 647 b 675 518 382 550 421 540 b 1204 260 999 490 1204 481 b 674 -28 1204 26 989 -28 b 74 278 331 -28 78 36 "},"ś":{"ha":1276,"x_min":0,"x_max":0,"o":"m 368 1083 l 908 1194 l 908 1051 l 368 940 m 354 278 b 660 158 358 196 424 158 b 922 247 885 158 922 186 b 619 336 922 313 876 318 b 100 582 272 361 100 392 b 635 853 100 799 344 853 b 1176 578 928 853 1161 793 l 894 578 b 624 675 890 654 810 675 b 382 601 436 675 382 647 b 675 518 382 550 421 540 b 1204 260 999 490 1204 481 b 674 -28 1204 26 989 -28 b 74 278 331 -28 78 36 "},"š":{"ha":1276,"x_min":0,"x_max":0,"o":"m 926 1031 l 639 919 l 351 1031 l 351 1179 l 639 1068 l 926 1179 m 675 518 b 1204 260 999 490 1204 481 b 674 -28 1204 26 989 -28 b 74 278 331 -28 78 36 l 354 278 b 660 158 358 196 424 158 b 922 247 885 158 922 186 b 619 336 922 313 876 318 b 100 582 272 361 100 392 b 635 853 100 799 344 853 b 1176 578 928 853 1161 793 l 894 578 b 624 675 890 654 810 675 b 382 601 436 675 382 647 b 675 518 382 550 421 540 "},"ş":{"ha":1276,"x_min":0,"x_max":0,"o":"m 1204 260 b 686 -28 1204 29 994 -26 l 668 -103 b 776 -83 696 -92 732 -83 b 919 -190 860 -83 919 -119 b 481 -333 919 -333 694 -360 l 481 -212 b 733 -189 653 -237 733 -236 b 688 -157 733 -167 715 -157 b 617 -178 667 -157 644 -164 l 521 -146 l 544 -25 b 74 278 269 -8 78 68 l 354 278 b 660 158 358 196 424 158 b 922 247 885 158 922 186 b 619 336 922 313 876 318 b 100 582 272 361 100 392 b 635 853 100 799 344 853 b 1176 578 928 853 1161 793 l 894 578 b 624 675 890 654 810 675 b 382 601 436 675 382 647 b 675 518 382 550 421 540 b 1204 260 999 490 1204 481 "},"ș":{"ha":1276,"x_min":0,"x_max":0,"o":"m 354 278 b 660 158 358 196 424 158 b 922 247 885 158 922 186 b 619 336 922 313 876 318 b 100 582 272 361 100 392 b 635 853 100 799 344 853 b 1176 578 928 853 1161 793 l 894 578 b 624 675 890 654 810 675 b 382 601 436 675 382 647 b 675 518 382 550 421 540 b 1204 260 999 490 1204 481 b 674 -28 1204 26 989 -28 b 74 278 331 -28 78 36 m 517 -115 l 760 -115 l 760 -274 l 635 -426 l 517 -426 l 603 -274 l 517 -274 "},"ß":{"ha":1282,"x_min":0,"x_max":0,"o":"m 932 526 b 1199 275 1096 499 1199 432 b 521 0 1199 19 992 0 l 521 215 b 918 321 847 215 918 228 b 521 426 918 414 847 426 l 521 585 b 794 692 718 585 794 594 b 606 804 794 772 722 804 b 368 586 461 804 368 768 l 368 0 l 96 0 l 96 567 b 613 1019 96 938 311 1019 b 1075 738 871 1019 1075 956 b 932 526 1075 632 1017 567 "},"t":{"ha":978,"x_min":0,"x_max":0,"o":"m 901 619 l 535 619 l 535 361 b 689 197 535 247 565 197 b 901 221 758 197 806 203 l 901 3 b 626 -28 817 -14 728 -28 b 267 285 378 -28 267 61 l 267 619 l 74 619 l 74 825 l 267 825 l 267 990 l 535 1065 l 535 825 l 901 825 "},"ŧ":{"ha":978,"x_min":0,"x_max":0,"o":"m 901 619 l 535 619 l 535 524 l 901 524 l 901 385 l 535 385 l 535 361 b 689 197 535 247 565 197 b 901 221 758 197 806 203 l 901 3 b 626 -28 817 -14 728 -28 b 267 285 378 -28 267 61 l 267 385 l 74 385 l 74 524 l 267 524 l 267 619 l 74 619 l 74 825 l 267 825 l 267 990 l 535 1065 l 535 825 l 901 825 "},"ť":{"ha":978,"x_min":0,"x_max":0,"o":"m 743 875 l 626 875 l 711 1017 l 626 1017 l 626 1164 l 869 1164 l 869 1017 m 901 619 l 535 619 l 535 361 b 689 197 535 247 565 197 b 901 221 758 197 806 203 l 901 3 b 626 -28 817 -14 728 -28 b 267 285 378 -28 267 61 l 267 619 l 74 619 l 74 825 l 267 825 l 267 990 l 535 1065 l 535 825 l 901 825 "},"ţ":{"ha":978,"x_min":0,"x_max":0,"o":"m 901 619 l 535 619 l 535 361 b 689 197 535 247 565 197 b 901 221 758 197 806 203 l 901 3 b 626 -28 817 -14 728 -28 l 622 -28 l 607 -93 b 715 -74 635 -82 671 -74 b 858 -181 799 -74 858 -110 b 419 -324 858 -324 633 -350 l 419 -203 b 672 -179 592 -228 672 -226 b 626 -147 672 -157 654 -147 b 556 -168 606 -147 583 -154 l 460 -136 l 483 -15 b 267 285 335 17 267 110 l 267 619 l 74 619 l 74 825 l 267 825 l 267 990 l 535 1065 l 535 825 l 901 825 "},"ț":{"ha":978,"x_min":0,"x_max":0,"o":"m 901 619 l 535 619 l 535 361 b 689 197 535 247 565 197 b 901 221 758 197 806 203 l 901 3 b 626 -28 817 -14 728 -28 b 267 285 378 -28 267 61 l 267 619 l 74 619 l 74 825 l 267 825 l 267 990 l 535 1065 l 535 825 l 901 825 m 468 -269 l 468 -111 l 711 -111 l 711 -269 l 586 -422 l 468 -422 l 554 -269 "},"u":{"ha":1379,"x_min":0,"x_max":0,"o":"m 1017 825 l 1283 825 l 1283 0 l 1017 0 l 1017 189 b 538 -28 914 58 768 -28 b 96 393 272 -28 97 85 l 96 825 l 364 825 l 364 485 b 654 197 364 294 433 197 b 1017 500 875 197 1017 296 "},"ú":{"ha":1379,"x_min":0,"x_max":0,"o":"m 414 985 l 583 1118 l 954 1150 l 786 1017 m 1017 825 l 1283 825 l 1283 0 l 1017 0 l 1017 189 b 538 -28 914 58 768 -28 b 96 393 272 -28 97 85 l 96 825 l 364 825 l 364 485 b 654 197 364 294 433 197 b 1017 500 875 197 1017 296 "},"û":{"ha":1379,"x_min":0,"x_max":0,"o":"m 775 1160 l 972 1038 l 883 969 l 596 1011 l 397 981 l 488 1118 m 1017 825 l 1283 825 l 1283 0 l 1017 0 l 1017 189 b 538 -28 914 58 768 -28 b 96 393 272 -28 97 85 l 96 825 l 364 825 l 364 485 b 654 197 364 294 433 197 b 1017 500 875 197 1017 296 "},"ü":{"ha":1379,"x_min":0,"x_max":0,"o":"m 385 1015 l 454 1111 l 625 1068 l 556 972 m 746 1015 l 815 1111 l 986 1068 l 917 972 m 1017 825 l 1283 825 l 1283 0 l 1017 0 l 1017 189 b 538 -28 914 58 768 -28 b 96 393 272 -28 97 85 l 96 825 l 364 825 l 364 485 b 654 197 364 294 433 197 b 1017 500 875 197 1017 296 "},"ù":{"ha":1379,"x_min":0,"x_max":0,"o":"m 414 1096 l 583 1160 l 954 1039 l 786 975 m 1017 825 l 1283 825 l 1283 0 l 1017 0 l 1017 189 b 538 -28 914 58 768 -28 b 96 393 272 -28 97 85 l 96 825 l 364 825 l 364 485 b 654 197 364 294 433 197 b 1017 500 875 197 1017 296 "},"ű":{"ha":1379,"x_min":0,"x_max":0,"o":"m 383 997 l 474 1135 l 671 1164 l 582 1028 m 754 997 l 844 1135 l 1042 1164 l 953 1028 m 1017 825 l 1283 825 l 1283 0 l 1017 0 l 1017 189 b 538 -28 914 58 768 -28 b 96 393 272 -28 97 85 l 96 825 l 364 825 l 364 485 b 654 197 364 294 433 197 b 1017 500 875 197 1017 296 "},"ū":{"ha":1379,"x_min":0,"x_max":0,"o":"m 358 1015 l 563 1111 l 1010 1068 l 807 972 m 1017 825 l 1283 825 l 1283 0 l 1017 0 l 1017 189 b 538 -28 914 58 768 -28 b 96 393 272 -28 97 85 l 96 825 l 364 825 l 364 485 b 654 197 364 294 433 197 b 1017 500 875 197 1017 296 "},"ų":{"ha":1379,"x_min":0,"x_max":0,"o":"m 1283 825 l 1283 0 b 1110 -99 1150 -10 1110 -47 b 1282 -171 1110 -165 1179 -171 l 1282 -347 b 871 -162 1040 -347 871 -306 b 1074 0 871 -78 940 -26 l 1017 0 l 1017 189 b 538 -28 914 58 768 -28 b 96 393 272 -28 96 85 l 96 825 l 364 825 l 364 485 b 654 197 364 294 433 197 b 1017 500 875 197 1017 296 l 1017 825 "},"ů":{"ha":1379,"x_min":0,"x_max":0,"o":"m 685 917 b 385 1100 471 917 385 985 b 685 1283 385 1215 471 1283 b 986 1100 900 1283 986 1215 b 685 917 986 985 900 917 m 685 1176 b 542 1100 596 1176 542 1156 b 685 1024 542 1044 596 1024 b 829 1100 775 1024 829 1044 b 685 1176 829 1156 775 1176 m 1017 825 l 1283 825 l 1283 0 l 1017 0 l 1017 189 b 538 -28 914 58 768 -28 b 96 393 272 -28 97 85 l 96 825 l 364 825 l 364 485 b 654 197 364 294 433 197 b 1017 500 875 197 1017 296 "},"v":{"ha":1389,"x_min":0,"x_max":0,"o":"m 1038 825 l 1315 825 l 893 0 l 496 0 l 74 825 l 350 825 l 694 149 "},"w":{"ha":2172,"x_min":0,"x_max":0,"o":"m 1831 825 l 2100 825 l 1744 0 l 1365 0 l 1086 579 l 807 0 l 428 0 l 74 825 l 342 825 l 619 181 l 926 825 l 1246 825 l 1553 181 "},"ẃ":{"ha":2172,"x_min":0,"x_max":0,"o":"m 1356 1194 l 1356 1051 l 815 940 l 815 1083 m 1831 825 l 2100 825 l 1744 0 l 1365 0 l 1086 579 l 807 0 l 428 0 l 74 825 l 342 825 l 619 181 l 926 825 l 1246 825 l 1553 181 "},"ŵ":{"ha":2172,"x_min":0,"x_max":0,"o":"m 1374 935 l 1086 1046 l 799 935 l 799 1083 l 1086 1194 l 1374 1083 m 1831 825 l 2100 825 l 1744 0 l 1365 0 l 1086 579 l 807 0 l 428 0 l 74 825 l 342 825 l 619 181 l 926 825 l 1246 825 l 1553 181 "},"ẅ":{"ha":2172,"x_min":0,"x_max":0,"o":"m 1026 1111 l 1026 972 l 786 972 l 786 1111 m 1388 1111 l 1388 972 l 1147 972 l 1147 1111 m 1831 825 l 2100 825 l 1744 0 l 1365 0 l 1086 579 l 807 0 l 428 0 l 74 825 l 342 825 l 619 181 l 926 825 l 1246 825 l 1553 181 "},"ẁ":{"ha":2172,"x_min":0,"x_max":0,"o":"m 1356 1083 l 1356 940 l 815 1051 l 815 1194 m 1831 825 l 2100 825 l 1744 0 l 1365 0 l 1086 579 l 807 0 l 428 0 l 74 825 l 342 825 l 619 181 l 926 825 l 1246 825 l 1553 181 "},"x":{"ha":1400,"x_min":0,"x_max":0,"o":"m 74 0 l 524 413 l 74 825 l 436 825 l 700 560 l 964 825 l 1326 825 l 876 413 l 1326 0 l 964 0 l 700 265 l 436 0 "},"y":{"ha":1388,"x_min":0,"x_max":0,"o":"m 1047 825 l 1324 825 l 894 -14 b 432 -361 783 -233 668 -361 b 135 -319 335 -361 233 -346 l 135 -110 b 390 -146 250 -135 332 -146 b 624 0 504 -146 556 -126 l 493 0 l 74 825 l 351 825 l 699 143 "},"ý":{"ha":1388,"x_min":0,"x_max":0,"o":"m 964 1194 l 964 1051 l 424 940 l 424 1083 m 1047 825 l 1324 825 l 894 -14 b 432 -361 783 -233 668 -361 b 135 -319 335 -361 233 -346 l 135 -110 b 390 -146 250 -135 332 -146 b 624 0 504 -146 556 -126 l 493 0 l 74 825 l 351 825 l 699 143 "},"ŷ":{"ha":1388,"x_min":0,"x_max":0,"o":"m 982 935 l 694 1046 l 407 935 l 407 1083 l 694 1194 l 982 1083 m 1047 825 l 1324 825 l 894 -14 b 432 -361 783 -233 668 -361 b 135 -319 335 -361 233 -346 l 135 -110 b 390 -146 250 -135 332 -146 b 624 0 504 -146 556 -126 l 493 0 l 74 825 l 351 825 l 699 143 "},"ÿ":{"ha":1388,"x_min":0,"x_max":0,"o":"m 635 1111 l 635 972 l 394 972 l 394 1111 m 996 1111 l 996 972 l 756 972 l 756 1111 m 1047 825 l 1324 825 l 894 -14 b 432 -361 783 -233 668 -361 b 135 -319 335 -361 233 -346 l 135 -110 b 390 -146 250 -135 332 -146 b 624 0 504 -146 556 -126 l 493 0 l 74 825 l 351 825 l 699 143 "},"ỳ":{"ha":1388,"x_min":0,"x_max":0,"o":"m 964 1083 l 964 940 l 424 1051 l 424 1194 m 1047 825 l 1324 825 l 894 -14 b 432 -361 783 -233 668 -361 b 135 -319 335 -361 233 -346 l 135 -110 b 390 -146 250 -135 332 -146 b 624 0 504 -146 556 -126 l 493 0 l 74 825 l 351 825 l 699 143 "},"z":{"ha":1176,"x_min":0,"x_max":0,"o":"m 1079 825 l 1079 619 l 465 206 l 1079 206 l 1079 0 l 96 0 l 96 206 l 711 619 l 96 619 l 96 825 "},"ź":{"ha":1176,"x_min":0,"x_max":0,"o":"m 857 1194 l 857 1051 l 317 940 l 317 1083 m 1079 825 l 1079 619 l 465 206 l 1079 206 l 1079 0 l 96 0 l 96 206 l 711 619 l 96 619 l 96 825 "},"ž":{"ha":1176,"x_min":0,"x_max":0,"o":"m 875 1031 l 588 919 l 300 1031 l 300 1179 l 588 1068 l 875 1179 m 1079 825 l 1079 619 l 465 206 l 1079 206 l 1079 0 l 96 0 l 96 206 l 711 619 l 96 619 l 96 825 "},"ż":{"ha":1176,"x_min":0,"x_max":0,"o":"m 718 1111 l 718 972 l 458 972 l 458 1111 m 1079 825 l 1079 619 l 465 206 l 1079 206 l 1079 0 l 96 0 l 96 206 l 711 619 l 96 619 l 96 825 "},"⁄":{"ha":844,"x_min":0,"x_max":0,"o":"m 750 1076 l 365 -208 l 106 -208 l 490 1076 "},".":{"ha":469,"x_min":0,"x_max":0,"o":"m 96 215 l 374 215 l 374 0 l 96 0 "},",":{"ha":469,"x_min":0,"x_max":0,"o":"m 96 215 l 374 215 l 374 0 l 240 -289 l 115 -289 l 197 0 l 96 0 "},":":{"ha":469,"x_min":0,"x_max":0,"o":"m 96 632 l 374 632 l 374 417 l 96 417 m 96 215 l 374 215 l 374 0 l 96 0 "},";":{"ha":469,"x_min":0,"x_max":0,"o":"m 96 632 l 374 632 l 374 417 l 96 417 m 96 0 l 96 215 l 374 215 l 374 0 l 240 -289 l 115 -289 l 197 0 "},"…":{"ha":1247,"x_min":0,"x_max":0,"o":"m 96 215 l 374 215 l 374 0 l 96 0 m 483 215 l 760 215 l 760 0 l 483 0 m 869 215 l 1146 215 l 1146 0 l 869 0 "},"!":{"ha":489,"x_min":0,"x_max":0,"o":"m 393 992 l 383 317 l 106 317 l 96 992 m 106 215 l 383 215 l 383 0 l 106 0 "},"¡":{"ha":493,"x_min":0,"x_max":0,"o":"m 106 618 l 106 833 l 383 833 l 383 618 m 393 -139 l 96 -139 l 106 518 l 383 518 "},"?":{"ha":1231,"x_min":0,"x_max":0,"o":"m 435 317 b 833 721 435 631 833 576 b 640 814 833 772 783 814 b 378 625 472 814 378 765 l 96 625 b 646 1019 106 908 326 1019 b 1135 757 960 1019 1135 939 b 715 317 1135 474 715 539 m 435 215 l 711 215 l 711 0 l 435 0 "},"¿":{"ha":1231,"x_min":0,"x_max":0,"o":"m 796 618 l 519 618 l 519 833 l 796 833 m 796 518 b 397 113 796 203 397 257 b 590 19 397 61 447 19 b 853 208 758 19 853 68 l 1135 208 b 585 -186 1125 -75 904 -186 b 96 76 271 -186 96 -106 b 515 518 96 360 515 294 "},"·":{"ha":474,"x_min":0,"x_max":0,"o":"m 96 547 l 374 547 l 374 332 l 96 332 "},"•":{"ha":693,"x_min":0,"x_max":0,"o":"m 347 268 b 96 446 176 268 96 324 b 347 622 96 567 176 622 b 596 446 517 622 596 567 b 347 268 596 324 517 268 "},"*":{"ha":914,"x_min":0,"x_max":0,"o":"m 96 704 l 344 806 l 96 906 l 176 1053 l 394 910 l 368 1129 l 544 1131 l 519 910 l 738 1053 l 817 906 l 569 806 l 817 704 l 739 558 l 519 701 l 544 479 l 368 479 l 394 701 l 175 558 "},"#":{"ha":1881,"x_min":0,"x_max":0,"o":"m 1756 568 l 1439 568 l 1349 265 l 1617 265 l 1617 60 l 1288 60 l 1207 -208 l 947 -208 l 1028 60 l 642 60 l 561 -208 l 301 -208 l 382 60 l 124 60 l 124 265 l 443 265 l 533 568 l 263 568 l 263 775 l 594 775 l 685 1076 l 946 1076 l 856 775 l 1240 775 l 1331 1076 l 1592 1076 l 1501 775 l 1756 775 m 1089 265 l 1179 568 l 793 568 l 703 265 "},"/":{"ha":846,"x_min":0,"x_max":0,"o":"m 750 1076 l 365 -208 l 106 -208 l 490 1076 "},"\\":{"ha":836,"x_min":0,"x_max":0,"o":"m 96 1076 l 357 1076 l 740 -208 l 481 -208 "},"(":{"ha":894,"x_min":0,"x_max":0,"o":"m 96 417 b 797 1111 96 932 374 1111 l 797 886 b 388 417 533 886 388 778 b 797 -53 388 56 535 -53 l 797 -278 b 96 417 374 -278 96 -99 "},")":{"ha":894,"x_min":0,"x_max":0,"o":"m 797 417 b 96 -278 797 -99 521 -278 l 96 -53 b 507 417 360 -53 507 56 b 96 886 507 778 361 886 l 96 1111 b 797 417 521 1111 797 932 "},"{":{"ha":894,"x_min":0,"x_max":0,"o":"m 96 535 b 306 743 218 535 321 540 b 797 1111 283 1028 411 1111 l 797 886 b 531 672 586 886 518 858 b 353 432 546 460 417 432 l 353 404 b 531 164 417 404 546 376 b 797 -53 518 -25 586 -53 l 797 -278 b 306 93 390 -278 283 -192 b 96 301 321 297 218 301 "},"}":{"ha":914,"x_min":0,"x_max":0,"o":"m 817 301 b 608 93 694 301 592 297 b 115 -278 629 -192 524 -278 l 115 -53 b 382 164 328 -53 394 -25 b 561 404 367 376 497 404 l 561 432 b 382 672 497 432 367 460 b 115 886 394 858 328 886 l 115 1111 b 608 743 503 1111 629 1028 b 817 535 592 540 694 535 "},"[":{"ha":894,"x_min":0,"x_max":0,"o":"m 797 1111 l 797 886 l 388 886 l 388 -53 l 797 -53 l 797 -278 l 96 -278 l 96 1111 "},"]":{"ha":894,"x_min":0,"x_max":0,"o":"m 96 1111 l 797 1111 l 797 -278 l 96 -278 l 96 -53 l 507 -53 l 507 886 l 96 886 "},"-":{"ha":1360,"x_min":0,"x_max":0,"o":"m 124 575 l 1235 575 l 1235 369 l 124 369 "},"–":{"ha":1638,"x_min":0,"x_max":0,"o":"m 124 575 l 1513 575 l 1513 369 l 124 369 "},"—":{"ha":1915,"x_min":0,"x_max":0,"o":"m 124 575 l 1790 575 l 1790 369 l 124 369 "},"_":{"ha":1638,"x_min":0,"x_max":0,"o":"m 124 -74 l 1513 -74 l 1513 -289 l 124 -289 "},"‚":{"ha":474,"x_min":0,"x_max":0,"o":"m 96 215 l 374 215 l 374 0 l 240 -289 l 115 -289 l 197 0 l 96 0 "},"„":{"ha":857,"x_min":0,"x_max":0,"o":"m 96 0 l 96 215 l 374 215 l 374 0 l 240 -289 l 115 -289 l 197 0 m 479 215 l 756 215 l 756 0 l 624 -289 l 499 -289 l 579 0 l 479 0 "},"“":{"ha":921,"x_min":0,"x_max":0,"o":"m 110 574 l 203 1075 l 438 1075 l 382 574 m 493 574 l 586 1075 l 821 1075 l 765 574 "},"”":{"ha":921,"x_min":0,"x_max":0,"o":"m 428 1075 l 335 574 l 101 574 l 157 1075 m 811 1075 l 718 574 l 483 574 l 539 1075 "},"‘":{"ha":539,"x_min":0,"x_max":0,"o":"m 110 574 l 203 1075 l 438 1075 l 382 574 "},"’":{"ha":529,"x_min":0,"x_max":0,"o":"m 428 1075 l 335 574 l 101 574 l 157 1075 "},"«":{"ha":1433,"x_min":0,"x_max":0,"o":"m 457 825 l 793 825 l 432 413 l 793 0 l 457 0 l 96 413 m 1001 825 l 1336 825 l 975 413 l 1336 0 l 1001 0 l 640 413 "},"»":{"ha":1450,"x_min":0,"x_max":0,"o":"m 449 825 l 810 413 l 449 0 l 114 0 l 475 413 l 114 825 m 993 825 l 1354 413 l 993 0 l 658 0 l 1019 413 l 658 825 "},"‹":{"ha":889,"x_min":0,"x_max":0,"o":"m 457 825 l 793 825 l 432 413 l 793 0 l 457 0 l 96 413 "},"›":{"ha":889,"x_min":0,"x_max":0,"o":"m 432 825 l 793 413 l 432 0 l 96 0 l 457 413 l 96 825 "},"\"":{"ha":903,"x_min":0,"x_max":0,"o":"m 397 1075 l 374 574 l 119 574 l 96 1075 m 807 1075 l 783 574 l 529 574 l 506 1075 "},"'":{"ha":493,"x_min":0,"x_max":0,"o":"m 397 1075 l 374 574 l 119 574 l 96 1075 "},"¢":{"ha":1332,"x_min":0,"x_max":0,"o":"m 731 264 b 968 403 868 274 942 325 l 1244 403 b 731 47 1204 178 1022 61 l 731 -139 l 601 -139 l 601 47 b 88 486 279 65 88 211 b 601 925 88 761 279 907 l 601 1111 l 731 1111 l 731 925 b 1244 569 1022 911 1204 794 l 968 569 b 731 708 942 647 868 699 m 358 486 b 601 264 358 347 444 279 l 601 708 b 358 486 444 693 358 625 "},"¤":{"ha":1326,"x_min":0,"x_max":0,"o":"m 1258 482 b 1089 144 1258 333 1200 219 l 1219 7 l 1104 -107 l 933 74 b 672 42 858 53 771 42 b 413 74 574 42 488 53 l 242 -107 l 126 7 l 256 144 b 88 482 146 219 88 333 b 253 817 88 629 144 742 l 126 951 l 242 1067 l 410 889 b 672 922 485 911 574 922 b 936 889 772 922 860 911 l 1104 1067 l 1219 951 l 1093 817 b 1258 482 1201 743 1258 629 m 442 313 b 672 257 493 275 569 257 b 978 482 875 257 978 326 b 672 707 978 636 875 707 b 368 482 471 707 368 636 b 426 325 368 414 388 363 l 428 326 "},"$":{"ha":1435,"x_min":0,"x_max":0,"o":"m 1338 300 b 782 -28 1338 54 1117 -24 l 782 -139 l 653 -139 l 653 -26 b 96 325 310 -11 108 86 l 397 325 b 653 190 397 251 461 201 l 653 396 b 119 719 283 426 119 508 b 653 1019 119 919 329 1014 l 653 1111 l 782 1111 l 782 1017 b 1296 683 1104 999 1289 885 l 996 683 b 782 801 996 756 931 792 l 782 608 b 1338 300 1119 582 1338 549 m 419 715 b 653 619 419 661 457 640 l 653 804 b 419 715 463 801 419 767 m 782 188 b 1038 288 986 192 1038 229 b 782 386 1038 353 1001 369 "},"€":{"ha":1201,"x_min":0,"x_max":0,"o":"m 786 785 b 525 631 635 785 557 735 l 944 631 l 944 539 l 510 539 b 508 488 508 522 508 506 b 510 456 508 476 508 465 l 944 456 l 944 364 l 522 364 b 786 207 553 260 629 207 b 1106 258 889 207 963 221 l 1106 24 b 711 -28 953 -14 851 -28 b 215 364 399 -28 251 128 l 96 364 l 96 456 l 207 456 l 207 488 b 208 539 207 506 207 522 l 96 539 l 96 631 l 218 631 b 711 1019 258 863 407 1019 b 1106 968 851 1019 953 1006 l 1106 733 b 786 785 963 771 889 785 "},"£":{"ha":1221,"x_min":0,"x_max":0,"o":"m 794 794 b 554 547 571 794 526 725 l 963 547 l 963 456 l 564 456 b 319 225 560 358 492 278 l 1124 225 l 1124 0 l 96 0 l 96 225 b 283 456 206 326 272 375 l 96 456 l 96 547 l 275 547 b 269 568 274 554 272 561 b 729 1019 197 819 329 1019 b 1124 978 869 1019 971 1006 l 1124 754 b 794 794 985 781 897 794 "},"¥":{"ha":1619,"x_min":0,"x_max":0,"o":"m 1496 992 l 1065 476 l 1386 476 l 1386 385 l 988 385 l 942 329 l 942 292 l 1386 292 l 1386 200 l 942 200 l 942 0 l 651 0 l 651 200 l 233 200 l 233 292 l 651 292 l 651 329 l 604 385 l 233 385 l 233 476 l 528 476 l 96 992 l 457 992 l 796 569 l 1135 992 "},"+":{"ha":1304,"x_min":0,"x_max":0,"o":"m 1207 575 l 1207 369 l 774 369 l 774 0 l 531 0 l 531 369 l 96 369 l 96 575 l 531 575 l 531 944 l 774 944 l 774 575 "},"−":{"ha":1304,"x_min":0,"x_max":0,"o":"m 96 575 l 1207 575 l 1207 369 l 96 369 "},"×":{"ha":1260,"x_min":0,"x_max":0,"o":"m 1163 651 l 836 464 l 1163 275 l 1060 96 l 631 344 l 200 96 l 97 275 l 424 464 l 97 651 l 200 831 l 629 583 l 1058 831 "},"÷":{"ha":1304,"x_min":0,"x_max":0,"o":"m 535 875 l 765 875 l 765 694 l 535 694 m 96 558 l 1207 558 l 1207 353 l 96 353 m 535 215 l 765 215 l 765 35 l 535 35 "},"=":{"ha":1304,"x_min":0,"x_max":0,"o":"m 96 797 l 1207 797 l 1207 592 l 96 592 m 96 353 l 1207 353 l 1207 147 l 96 147 "},"≠":{"ha":1304,"x_min":0,"x_max":0,"o":"m 1207 590 l 838 590 l 765 351 l 1207 351 l 1207 146 l 704 146 l 610 -171 l 349 -171 l 443 146 l 96 146 l 96 351 l 506 351 l 576 590 l 96 590 l 96 796 l 638 796 l 733 1114 l 993 1114 l 899 796 l 1207 796 "},">":{"ha":1304,"x_min":0,"x_max":0,"o":"m 96 833 l 1207 650 l 1207 294 l 96 111 l 96 344 l 985 472 l 96 600 "},"<":{"ha":1304,"x_min":0,"x_max":0,"o":"m 1207 833 l 1207 600 l 318 472 l 1207 344 l 1207 111 l 96 294 l 96 650 "},"≥":{"ha":1313,"x_min":0,"x_max":0,"o":"m 106 1031 l 1217 847 l 1217 492 l 106 308 l 106 542 l 994 669 l 106 797 m 96 15 l 96 221 l 1207 221 l 1207 15 "},"≤":{"ha":1313,"x_min":0,"x_max":0,"o":"m 1207 542 l 1207 308 l 96 492 l 96 847 l 1207 1031 l 1207 797 l 318 669 m 106 221 l 1217 221 l 1217 15 l 106 15 "},"±":{"ha":1304,"x_min":0,"x_max":0,"o":"m 774 756 l 1207 756 l 1207 550 l 774 550 l 774 324 l 531 324 l 531 550 l 96 550 l 96 756 l 531 756 l 531 982 l 774 982 m 96 36 l 96 242 l 1207 242 l 1207 36 "},"≈":{"ha":1304,"x_min":0,"x_max":0,"o":"m 96 528 b 393 956 96 789 189 956 b 854 763 613 956 703 763 b 974 956 938 763 974 813 l 1207 956 b 911 528 1207 694 1115 528 b 450 721 692 528 601 721 b 331 528 367 721 331 671 m 96 8 b 393 436 96 269 189 436 b 854 243 613 436 703 243 b 974 436 938 243 974 293 l 1207 436 b 911 8 1207 175 1115 8 b 450 201 692 8 601 201 b 331 8 367 201 331 151 "},"~":{"ha":1304,"x_min":0,"x_max":0,"o":"m 96 258 b 393 686 96 519 189 686 b 854 493 613 686 703 493 b 974 686 938 493 974 543 l 1207 686 b 911 258 1207 425 1115 258 b 450 451 692 258 601 451 b 331 258 367 451 331 401 "},"¬":{"ha":1304,"x_min":0,"x_max":0,"o":"m 1207 604 l 1207 89 l 964 89 l 964 399 l 96 399 l 96 604 "},"^":{"ha":1306,"x_min":0,"x_max":0,"o":"m 1208 486 l 942 486 l 653 971 l 363 486 l 96 486 l 478 1111 l 829 1111 "},"∅":{"ha":1619,"x_min":0,"x_max":0,"o":"m 1517 1056 l 1367 906 b 1508 488 1461 793 1508 647 b 811 -162 1508 128 1268 -162 b 401 -60 646 -162 510 -125 l 240 -221 l 103 -83 l 254 68 b 113 488 161 181 113 328 b 811 1135 113 847 356 1135 b 1219 1033 975 1135 1113 1097 l 1379 1193 m 394 488 b 444 258 394 399 411 321 l 1039 853 b 811 900 978 883 901 900 b 394 488 536 900 394 746 m 1228 488 b 1178 717 1228 578 1211 654 l 583 122 b 811 72 644 89 721 72 b 1228 488 1085 72 1228 228 "},"∫":{"ha":1406,"x_min":0,"x_max":0,"o":"m 96 17 b 514 275 240 17 453 11 l 601 628 b 1308 1111 721 1111 1004 1111 l 1308 886 b 892 628 1165 886 953 892 l 804 275 b 96 -208 685 -208 401 -208 "},"∏":{"ha":1757,"x_min":0,"x_max":0,"o":"m 1660 1111 l 1660 886 l 1360 886 l 1360 -208 l 1111 -208 l 1111 886 l 624 886 l 624 -208 l 375 -208 l 375 886 l 96 886 l 96 1111 "},"%":{"ha":2100,"x_min":0,"x_max":0,"o":"m 483 346 b 96 683 217 346 96 517 b 483 1019 96 849 217 1019 b 872 683 753 1019 872 849 b 483 346 872 517 753 346 m 1514 992 l 831 0 l 585 0 l 1267 992 m 483 524 b 649 685 599 524 649 596 b 483 842 649 771 599 842 b 321 685 369 842 321 771 b 483 524 321 596 369 524 m 1614 -28 b 1228 310 1347 -28 1228 143 b 1614 646 1228 475 1347 646 b 2003 310 1883 646 2003 475 b 1614 -28 2003 143 1883 -28 m 1614 150 b 1779 311 1731 150 1779 222 b 1614 468 1779 397 1731 468 b 1451 311 1500 468 1451 397 b 1614 150 1451 222 1500 150 "},"‰":{"ha":2949,"x_min":0,"x_max":0,"o":"m 483 346 b 96 683 217 346 96 517 b 483 1019 96 849 217 1019 b 872 683 753 1019 872 849 b 483 346 872 517 753 346 m 1514 992 l 831 0 l 585 0 l 1267 992 m 483 524 b 649 685 599 524 649 596 b 483 842 649 771 599 842 b 321 685 369 842 321 771 b 483 524 321 596 369 524 m 1614 -28 b 1228 310 1347 -28 1228 143 b 1614 646 1228 475 1347 646 b 2003 310 1883 646 2003 475 b 1614 -28 2003 143 1883 -28 m 2464 -28 b 2076 310 2197 -28 2076 143 b 2464 646 2076 475 2197 646 b 2853 310 2732 646 2853 475 b 2464 -28 2853 143 2732 -28 m 1614 150 b 1779 311 1731 150 1779 222 b 1614 468 1779 397 1731 468 b 1451 311 1500 468 1451 397 b 1614 150 1451 222 1500 150 m 2464 150 b 2629 311 2579 150 2629 222 b 2464 468 2629 397 2579 468 b 2301 311 2350 468 2301 397 b 2464 150 2301 222 2350 150 "},"↑":{"ha":1035,"x_min":0,"x_max":0,"o":"m 611 46 l 424 46 l 424 681 l 225 475 l 96 610 l 515 1018 l 938 610 l 810 475 l 611 681 "},"↗":{"ha":954,"x_min":0,"x_max":0,"o":"m 228 122 l 96 254 l 544 701 l 258 699 l 263 883 l 849 876 l 858 289 l 672 283 l 676 569 "},"→":{"ha":1165,"x_min":0,"x_max":0,"o":"m 96 393 l 96 579 l 731 579 l 525 779 l 660 907 l 1068 488 l 660 65 l 525 193 l 731 393 "},"↘":{"ha":954,"x_min":0,"x_max":0,"o":"m 228 850 l 676 403 l 672 688 l 858 683 l 849 96 l 263 89 l 258 274 l 544 271 l 96 718 "},"↓":{"ha":1035,"x_min":0,"x_max":0,"o":"m 611 936 l 611 301 l 810 507 l 938 372 l 515 -36 l 96 372 l 225 507 l 424 301 l 424 936 "},"↙":{"ha":954,"x_min":0,"x_max":0,"o":"m 726 850 l 858 718 l 410 271 l 696 274 l 692 89 l 106 96 l 96 683 l 282 688 l 278 403 "},"←":{"ha":1165,"x_min":0,"x_max":0,"o":"m 1068 393 l 435 393 l 640 193 l 506 65 l 96 488 l 506 907 l 640 779 l 435 579 l 1068 579 "},"↖":{"ha":954,"x_min":0,"x_max":0,"o":"m 726 131 l 278 578 l 282 293 l 96 297 l 106 885 l 692 892 l 696 707 l 410 710 l 858 261 "},"↔":{"ha":2000,"x_min":0,"x_max":0,"o":"m 1360 779 l 1494 907 l 1903 488 l 1494 65 l 1360 193 l 1565 393 l 435 393 l 640 193 l 506 65 l 96 488 l 506 907 l 640 779 l 435 579 l 1565 579 "},"↕":{"ha":1035,"x_min":0,"x_max":0,"o":"m 611 35 l 810 239 l 938 104 l 515 -304 l 96 104 l 225 239 l 424 35 l 424 810 l 225 606 l 96 740 l 515 1149 l 938 740 l 810 606 l 611 810 "},"◊":{"ha":1347,"x_min":0,"x_max":0,"o":"m 494 -233 l 96 439 l 494 1111 l 854 1111 l 1251 439 l 854 -233 m 675 -90 l 986 439 l 675 969 l 361 439 "},"@":{"ha":1896,"x_min":0,"x_max":0,"o":"m 1021 -207 b 1675 -69 1308 -207 1517 -142 l 1760 -232 b 1021 -404 1597 -314 1401 -404 b 96 372 385 -404 96 -135 b 1011 1140 96 849 385 1140 b 1799 450 1532 1140 1799 900 b 1442 -19 1799 150 1692 -19 b 1157 143 1286 -19 1197 53 b 878 7 1107 60 1018 7 b 525 368 635 7 525 164 b 878 729 525 572 635 729 b 1129 631 996 729 1076 693 l 1129 711 l 1331 711 l 1331 285 b 1449 119 1331 192 1340 119 b 1585 424 1560 119 1585 239 b 1011 943 1585 826 1410 943 b 311 372 522 943 311 769 b 1021 -207 311 -42 522 -207 m 935 193 b 1129 368 1076 193 1129 258 b 935 543 1129 478 1076 543 b 739 368 792 543 739 478 b 935 193 739 258 792 193 "},"&":{"ha":1532,"x_min":0,"x_max":0,"o":"m 1435 0 l 1083 0 l 996 63 b 606 -28 885 3 750 -28 b 96 243 286 -28 96 57 b 365 514 96 394 218 464 b 239 747 289 581 239 651 b 619 1000 239 919 421 1000 b 993 756 840 1000 993 913 b 728 513 993 622 874 561 b 781 478 746 501 764 490 l 1004 315 b 1071 508 1039 365 1061 429 l 1294 508 b 1167 196 1286 383 1240 279 m 633 824 b 492 726 549 824 492 790 b 603 588 492 671 540 628 b 769 726 732 632 769 672 b 633 824 769 792 711 824 m 644 158 b 825 185 711 158 771 167 l 628 325 b 481 426 578 361 528 394 b 368 290 404 388 368 344 b 644 158 368 200 460 158 "},"¶":{"ha":1294,"x_min":0,"x_max":0,"o":"m 796 1111 l 796 -208 l 547 -208 l 547 471 b 96 790 324 471 96 479 b 547 1111 96 1103 324 1111 m 950 1111 l 1197 1111 l 1197 -208 l 950 -208 "},"§":{"ha":1331,"x_min":0,"x_max":0,"o":"m 1015 288 b 1235 35 1163 246 1235 174 b 686 -253 1235 -200 997 -253 b 124 47 372 -253 133 -176 l 406 47 b 700 -69 406 -47 497 -69 b 954 29 900 -69 954 -39 b 646 139 954 100 906 118 b 106 378 311 165 106 189 b 314 589 106 500 186 560 b 96 833 168 631 96 701 b 646 1119 96 1067 338 1119 b 1199 819 956 1119 1189 1044 l 917 819 b 632 938 917 915 831 938 b 378 839 435 938 378 907 b 681 739 378 778 425 758 b 1221 500 1017 713 1221 689 b 1015 288 1221 378 1142 317 m 378 444 b 694 335 378 369 446 354 b 949 432 886 321 949 364 b 633 542 949 507 881 524 b 378 444 440 556 378 514 "},"©":{"ha":1339,"x_min":0,"x_max":0,"o":"m 669 -14 b 96 488 297 -14 96 183 b 669 986 96 792 297 986 b 1242 488 1043 986 1242 792 b 669 -14 1242 183 1043 -14 m 669 89 b 1132 488 961 89 1132 226 b 669 883 1132 749 963 883 b 207 488 378 883 207 747 b 669 89 207 226 379 89 m 351 486 b 682 744 351 663 486 744 b 986 544 854 744 957 679 l 876 544 b 672 642 854 614 799 642 b 461 486 544 642 461 600 b 672 331 461 372 544 331 b 876 428 799 331 854 358 l 986 428 b 682 228 957 293 854 228 b 351 486 486 228 351 310 "},"®":{"ha":1339,"x_min":0,"x_max":0,"o":"m 669 -28 b 96 488 297 -28 96 183 b 669 1019 96 792 297 1019 b 1242 488 1043 1019 1242 792 b 669 -28 1242 183 1043 -28 m 669 75 b 1132 488 965 75 1132 226 b 669 917 1132 749 967 917 b 207 488 374 917 207 747 b 669 75 207 226 375 75 m 453 264 l 453 725 l 724 725 b 926 556 868 725 926 657 b 817 400 926 490 893 428 l 919 264 l 789 264 l 699 388 l 561 388 l 561 264 m 561 489 l 725 489 b 819 556 793 489 819 506 b 725 622 819 604 793 622 l 561 622 "},"™":{"ha":1567,"x_min":0,"x_max":0,"o":"m 96 869 l 96 972 l 672 972 l 672 869 l 439 869 l 438 511 l 331 511 l 331 869 m 740 511 l 740 972 l 911 972 l 1106 611 l 1300 972 l 1471 972 l 1469 511 l 1363 511 l 1363 865 l 1171 511 l 1040 511 l 849 865 l 849 511 "},"°":{"ha":988,"x_min":0,"x_max":0,"o":"m 493 326 b 96 674 189 326 96 497 b 493 1019 96 849 189 1019 b 892 674 799 1019 892 849 b 493 326 892 497 799 326 m 493 504 b 667 675 618 504 667 576 b 493 842 667 771 618 842 b 321 675 369 842 321 771 b 493 504 321 576 369 504 "},"|":{"ha":442,"x_min":0,"x_max":0,"o":"m 96 1111 l 344 1111 l 344 -208 l 96 -208 "},"¦":{"ha":442,"x_min":0,"x_max":0,"o":"m 96 1111 l 344 1111 l 344 590 l 96 590 m 96 313 l 344 313 l 344 -208 l 96 -208 "},"†":{"ha":1261,"x_min":0,"x_max":0,"o":"m 1164 825 l 1164 600 l 754 600 l 754 -208 l 507 -208 l 507 600 l 96 600 l 96 825 l 507 825 l 507 1111 l 754 1111 l 754 825 "},"‡":{"ha":1261,"x_min":0,"x_max":0,"o":"m 1164 600 l 754 600 l 754 303 l 1164 303 l 1164 78 l 754 78 l 754 -208 l 507 -208 l 507 78 l 96 78 l 96 303 l 507 303 l 507 600 l 96 600 l 96 825 l 507 825 l 507 1111 l 754 1111 l 754 825 l 1164 825 "},"̈":{"ha":0,"x_min":0,"x_max":0,"o":"m -700 1111 l -458 1111 l -458 972 l -700 972 m -339 1111 l -97 1111 l -97 972 l -339 972 "},"̇":{"ha":0,"x_min":0,"x_max":0,"o":"m -357 1111 l -96 1111 l -96 972 l -357 972 "},"̀":{"ha":0,"x_min":0,"x_max":0,"o":"m -106 1083 l -106 940 l -646 1051 l -646 1194 "},"́":{"ha":0,"x_min":0,"x_max":0,"o":"m -637 1083 l -97 1194 l -97 1051 l -637 940 "},"̋":{"ha":0,"x_min":0,"x_max":0,"o":"m -756 1100 l -468 1211 l -468 1063 l -756 951 m -385 1100 l -97 1211 l -97 1063 l -385 951 "},"̂":{"ha":0,"x_min":0,"x_max":0,"o":"m -385 1194 l -97 1083 l -97 935 l -385 1046 l -672 935 l -672 1083 "},"̌":{"ha":0,"x_min":0,"x_max":0,"o":"m -385 1068 l -97 1179 l -97 1031 l -385 919 l -672 1031 l -672 1179 "},"̆":{"ha":0,"x_min":0,"x_max":0,"o":"m -569 1190 b -412 1061 -569 1099 -515 1061 b -254 1190 -310 1061 -254 1099 l -97 1190 b -412 926 -97 988 -240 926 b -728 1190 -585 926 -728 988 "},"̊":{"ha":0,"x_min":0,"x_max":0,"o":"m -399 917 b -700 1100 -614 917 -700 985 b -399 1283 -700 1215 -614 1283 b -97 1100 -183 1283 -97 1215 b -399 917 -97 985 -183 917 m -399 1024 b -256 1100 -308 1024 -256 1044 b -399 1176 -256 1156 -308 1176 b -542 1100 -487 1176 -542 1156 b -399 1024 -542 1044 -487 1024 "},"̃":{"ha":0,"x_min":0,"x_max":0,"o":"m -940 925 b -712 1218 -940 1074 -885 1218 b -365 1089 -542 1218 -468 1089 b -282 1214 -300 1089 -282 1135 l -96 1214 b -322 921 -96 1065 -150 921 b -671 1050 -493 921 -567 1050 b -754 925 -736 1050 -754 1004 "},"̄":{"ha":0,"x_min":0,"x_max":0,"o":"m -749 1111 l -97 1111 l -97 972 l -749 972 "},"̒":{"ha":0,"x_min":0,"x_max":0,"o":"m -97 976 l -340 976 l -340 1135 l -214 1288 l -97 1288 l -182 1135 l -97 1135 "},"̦":{"ha":0,"x_min":0,"x_max":0,"o":"m -340 -101 l -97 -101 l -97 -260 l -222 -412 l -340 -412 l -254 -260 l -340 -260 "},"̧":{"ha":0,"x_min":0,"x_max":0,"o":"m -239 -69 b -97 -176 -156 -69 -97 -106 b -536 -319 -97 -319 -322 -346 l -536 -199 b -282 -175 -362 -224 -282 -222 b -328 -143 -282 -153 -300 -143 b -399 -164 -349 -143 -371 -150 l -494 -132 l -468 0 l -328 0 l -349 -90 b -239 -69 -321 -78 -283 -69 "},"̨":{"ha":0,"x_min":0,"x_max":0,"o":"m -97 -319 b -506 -157 -357 -319 -506 -293 b -389 0 -506 -90 -460 -46 l -250 0 b -321 -100 -279 -24 -321 -53 b -97 -181 -321 -181 -212 -181 "},"̵":{"ha":0,"x_min":0,"x_max":0,"o":"m -764 542 l -97 542 l -97 403 l -764 403 "},"̶":{"ha":0,"x_min":0,"x_max":0,"o":"m -1486 542 l -97 542 l -97 403 l -1486 403 "},"̷":{"ha":0,"x_min":0,"x_max":0,"o":"m -96 1076 l -479 -208 l -740 -208 l -356 1076 "},"̸":{"ha":0,"x_min":0,"x_max":0,"o":"m -97 1000 l -458 -208 l -671 -208 l -310 1000 "},"¨":{"ha":796,"x_min":0,"x_max":0,"o":"m 96 1111 l 338 1111 l 338 972 l 96 972 m 457 1111 l 699 1111 l 699 972 l 457 972 "},"˙":{"ha":453,"x_min":0,"x_max":0,"o":"m 96 1111 l 357 1111 l 357 972 l 96 972 "},"`":{"ha":733,"x_min":0,"x_max":0,"o":"m 636 1083 l 636 940 l 96 1051 l 96 1194 "},"´":{"ha":733,"x_min":0,"x_max":0,"o":"m 96 1083 l 636 1194 l 636 1051 l 96 940 "},"˝":{"ha":851,"x_min":0,"x_max":0,"o":"m 96 1100 l 383 1211 l 383 1063 l 96 951 m 467 1100 l 754 1211 l 754 1063 l 467 951 "},"ˆ":{"ha":768,"x_min":0,"x_max":0,"o":"m 383 1194 l 671 1083 l 671 935 l 383 1046 l 96 935 l 96 1083 "},"ˇ":{"ha":768,"x_min":0,"x_max":0,"o":"m 383 1068 l 671 1179 l 671 1031 l 383 919 l 96 1031 l 96 1179 "},"˘":{"ha":824,"x_min":0,"x_max":0,"o":"m 254 1190 b 411 1061 254 1099 308 1061 b 569 1190 514 1061 569 1099 l 726 1190 b 411 926 726 988 583 926 b 96 1190 239 926 96 988 "},"˚":{"ha":796,"x_min":0,"x_max":0,"o":"m 397 917 b 96 1100 182 917 96 985 b 397 1283 96 1215 182 1283 b 699 1100 613 1283 699 1215 b 397 917 699 985 613 917 m 397 1024 b 540 1100 488 1024 540 1044 b 397 1176 540 1156 488 1176 b 254 1100 308 1176 254 1156 b 397 1024 254 1044 308 1024 "},"˜":{"ha":1036,"x_min":0,"x_max":0,"o":"m 96 925 b 324 1218 96 1074 151 1218 b 671 1089 494 1218 568 1089 b 754 1214 736 1089 754 1135 l 940 1214 b 714 921 940 1065 886 921 b 365 1050 543 921 469 1050 b 282 925 300 1050 282 1004 "},"¯":{"ha":844,"x_min":0,"x_max":0,"o":"m 96 1111 l 747 1111 l 747 972 l 96 972 "},"¸":{"ha":632,"x_min":0,"x_max":0,"o":"m 393 -69 b 535 -176 476 -69 535 -106 b 96 -319 535 -319 310 -346 l 96 -199 b 350 -175 269 -224 350 -222 b 304 -143 350 -153 332 -143 b 233 -164 283 -143 261 -150 l 138 -132 l 164 0 l 304 0 l 283 -90 b 393 -69 311 -78 349 -69 "},"˛":{"ha":593,"x_min":0,"x_max":0,"o":"m 496 -319 b 88 -157 236 -319 88 -293 b 204 0 88 -90 133 -46 l 343 0 b 272 -100 314 -24 272 -53 b 496 -181 272 -181 381 -181 "}}}
